<svg xmlns="http://www.w3.org/2000/svg" width="960" height="480">
  <rect x="0" y="0" width="960" height="480" fill="#ffffff"/>
  <line x1="50" y1="430" x2="910" y2="430" stroke="#333" stroke-width="1"/>
  <line x1="50" y1="430" x2="50" y2="50" stroke="#333" stroke-width="1"/>
  <polyline fill="none" stroke="#1f77b4" stroke-width="2" points="50.00,430.00 58.69,50.11 67.37,312.07 76.06,50.38 84.75,51.00 93.43,50.40 102.12,50.59 110.81,50.45 119.49,50.26 128.18,179.95 136.87,50.55 145.56,50.41 154.24,50.05 162.93,50.08 171.62,50.55 180.30,50.27 188.99,50.57 197.68,50.36 206.36,50.69 215.05,50.49 223.74,50.22 232.42,50.56 241.11,50.31 249.80,50.21 258.48,50.17 267.17,50.39 275.86,50.59 284.55,50.58 293.23,50.26 301.92,50.89 310.61,50.67 319.29,50.05 327.98,50.14 336.67,50.17 345.35,50.41 354.04,50.57 362.73,50.50 371.41,50.65 380.10,50.22 388.79,50.18 397.47,50.46 406.16,50.41 414.85,50.17 423.54,50.67 432.22,236.19 440.91,50.74 449.60,50.05 458.28,54.37 466.97,50.18 475.66,50.52 484.34,50.34 493.03,50.20 501.72,50.66 510.40,50.90 519.09,50.28 527.78,50.22 536.46,50.24 545.15,50.31 553.84,50.55 562.53,50.16 571.21,50.41 579.90,50.80 588.59,50.30 597.27,50.50 605.96,51.01 614.65,50.42 623.33,50.16 632.02,50.27 640.71,50.00 649.39,50.18 658.08,50.77 666.77,50.05 675.45,50.68 684.14,142.57 692.83,50.35 701.52,50.63 710.20,50.61 718.89,50.57 727.58,50.51 736.26,50.46 744.95,50.67 753.64,50.59 762.32,50.16 771.01,50.49 779.70,50.52 788.38,50.42 797.07,50.38 805.76,50.69 814.44,50.38 823.13,50.45 831.82,50.30 840.51,50.45 849.19,50.81 857.88,50.49 866.57,50.56 875.25,50.88 883.94,50.13 892.63,50.71 901.31,50.34 910.00,50.76"/>
  <text x="480" y="20" text-anchor="middle" font-family="Arial" font-size="16">CartPole Cumulative Rewards per Episode</text>
  <text x="480" y="470" text-anchor="middle" font-family="Arial" font-size="12">Episode</text>
  <text x="15" y="240" transform="rotate(-90, 15, 240)" text-anchor="middle" font-family="Arial" font-size="12">Cumulative Reward</text>
</svg>