<?xml version="1.0" encoding="utf-8" standalone="no"?>
<!DOCTYPE svg PUBLIC "-//W3C//DTD SVG 1.1//EN"
  "http://www.w3.org/Graphics/SVG/1.1/DTD/svg11.dtd">
<!-- Created with matplotlib (https://matplotlib.org/) -->
<svg height="713.049687pt" version="1.1" viewBox="0 0 857.76375 713.049687" width="857.76375pt" xmlns="http://www.w3.org/2000/svg" xmlns:xlink="http://www.w3.org/1999/xlink">
 <defs>
  <style type="text/css">
*{stroke-linecap:butt;stroke-linejoin:round;}
  </style>
 </defs>
 <g id="figure_1">
  <g id="patch_1">
   <path d="M 0 713.049687 
L 857.76375 713.049687 
L 857.76375 0 
L 0 0 
z
" style="fill:#ffffff;"/>
  </g>
  <g id="axes_1">
   <g id="patch_2">
    <path d="M 48.995 318.957812 
L 841.02 318.957812 
L 841.02 23.837812 
L 48.995 23.837812 
z
" style="fill:#ffffff;"/>
   </g>
   <g id="PolyCollection_1">
    <defs>
     <path d="M 84.996136 -444.500949 
L 84.996136 -429.36296 
L 136.426331 -496.832806 
L 187.856526 -584.494622 
L 239.286721 -617.375294 
L 290.716916 -641.35155 
L 342.14711 -651.164404 
L 393.577305 -667.144635 
L 445.0075 -657.566455 
L 496.437695 -652.320803 
L 547.86789 -652.196087 
L 599.298084 -669.292529 
L 650.728279 -669.676859 
L 702.158474 -674.525942 
L 753.588669 -674.272986 
L 805.018864 -669.377556 
L 805.018864 -675.715986 
L 805.018864 -675.715986 
L 753.588669 -675.759567 
L 702.158474 -675.79733 
L 650.728279 -674.482232 
L 599.298084 -675.093722 
L 547.86789 -671.3167 
L 496.437695 -664.07577 
L 445.0075 -672.915361 
L 393.577305 -675.716447 
L 342.14711 -674.03561 
L 290.716916 -664.260681 
L 239.286721 -647.379636 
L 187.856526 -624.465347 
L 136.426331 -559.937902 
L 84.996136 -444.500949 
z
" id="mcda4360cd9" style="stroke:#0000ff;stroke-opacity:0.2;"/>
    </defs>
    <g clip-path="url(#p3f1d459336)">
     <use style="fill:#0000ff;fill-opacity:0.2;stroke:#0000ff;stroke-opacity:0.2;" x="0" xlink:href="#mcda4360cd9" y="713.049687"/>
    </g>
   </g>
   <g id="PolyCollection_2">
    <defs>
     <path d="M 84.996136 -416.122376 
L 84.996136 -410.850601 
L 136.426331 -407.50642 
L 187.856526 -413.510106 
L 239.286721 -415.327605 
L 290.716916 -427.459627 
L 342.14711 -435.86162 
L 393.577305 -466.527873 
L 445.0075 -516.446782 
L 496.437695 -531.776327 
L 547.86789 -535.522618 
L 599.298084 -562.448259 
L 650.728279 -591.523846 
L 702.158474 -584.380857 
L 753.588669 -606.377789 
L 805.018864 -592.596667 
L 805.018864 -637.136138 
L 805.018864 -637.136138 
L 753.588669 -635.577507 
L 702.158474 -623.798027 
L 650.728279 -632.765313 
L 599.298084 -628.854587 
L 547.86789 -614.314452 
L 496.437695 -593.493334 
L 445.0075 -575.402156 
L 393.577305 -507.749072 
L 342.14711 -458.86511 
L 290.716916 -457.990042 
L 239.286721 -434.374259 
L 187.856526 -421.10648 
L 136.426331 -413.533568 
L 84.996136 -416.122376 
z
" id="m5fe05bc3d3" style="stroke:#008000;stroke-opacity:0.2;"/>
    </defs>
    <g clip-path="url(#p3f1d459336)">
     <use style="fill:#008000;fill-opacity:0.2;stroke:#008000;stroke-opacity:0.2;" x="0" xlink:href="#m5fe05bc3d3" y="713.049687"/>
    </g>
   </g>
   <g id="PolyCollection_3">
    <defs>
     <path d="M 84.996136 -422.476518 
L 84.996136 -414.122871 
L 136.426331 -420.7527 
L 187.856526 -426.964649 
L 239.286721 -426.193832 
L 290.716916 -425.221256 
L 342.14711 -424.652075 
L 393.577305 -425.627738 
L 445.0075 -428.644403 
L 496.437695 -429.790586 
L 547.86789 -426.750073 
L 599.298084 -423.265777 
L 650.728279 -421.588078 
L 702.158474 -420.182886 
L 753.588669 -418.348111 
L 805.018864 -417.016757 
L 805.018864 -421.619928 
L 805.018864 -421.619928 
L 753.588669 -424.535673 
L 702.158474 -428.772924 
L 650.728279 -430.294186 
L 599.298084 -428.278088 
L 547.86789 -431.355488 
L 496.437695 -437.617716 
L 445.0075 -436.553237 
L 393.577305 -431.001433 
L 342.14711 -428.432471 
L 290.716916 -430.582346 
L 239.286721 -433.010979 
L 187.856526 -430.570175 
L 136.426331 -427.533039 
L 84.996136 -422.476518 
z
" id="m2d2a359db5" style="stroke:#ff0000;stroke-opacity:0.2;"/>
    </defs>
    <g clip-path="url(#p3f1d459336)">
     <use style="fill:#ff0000;fill-opacity:0.2;stroke:#ff0000;stroke-opacity:0.2;" x="0" xlink:href="#m2d2a359db5" y="713.049687"/>
    </g>
   </g>
   <g id="matplotlib.axis_1">
    <g id="xtick_1">
     <g id="line2d_1">
      <path clip-path="url(#p3f1d459336)" d="M 84.996136 318.957812 
L 84.996136 23.837812 
" style="fill:none;stroke:#b0b0b0;stroke-dasharray:2.96,1.28;stroke-dashoffset:0;stroke-opacity:0.3;stroke-width:0.8;"/>
     </g>
     <g id="line2d_2">
      <defs>
       <path d="M 0 0 
L 0 3.5 
" id="ma71a88898f" style="stroke:#000000;stroke-width:0.8;"/>
      </defs>
      <g>
       <use style="stroke:#000000;stroke-width:0.8;" x="84.996136" xlink:href="#ma71a88898f" y="318.957812"/>
      </g>
     </g>
     <g id="text_1">
      <!-- 0 -->
      <defs>
       <path d="M 31.78125 66.40625 
Q 24.171875 66.40625 20.328125 58.90625 
Q 16.5 51.421875 16.5 36.375 
Q 16.5 21.390625 20.328125 13.890625 
Q 24.171875 6.390625 31.78125 6.390625 
Q 39.453125 6.390625 43.28125 13.890625 
Q 47.125 21.390625 47.125 36.375 
Q 47.125 51.421875 43.28125 58.90625 
Q 39.453125 66.40625 31.78125 66.40625 
z
M 31.78125 74.21875 
Q 44.046875 74.21875 50.515625 64.515625 
Q 56.984375 54.828125 56.984375 36.375 
Q 56.984375 17.96875 50.515625 8.265625 
Q 44.046875 -1.421875 31.78125 -1.421875 
Q 19.53125 -1.421875 13.0625 8.265625 
Q 6.59375 17.96875 6.59375 36.375 
Q 6.59375 54.828125 13.0625 64.515625 
Q 19.53125 74.21875 31.78125 74.21875 
z
" id="DejaVuSans-48"/>
      </defs>
      <g transform="translate(81.814886 333.55625)scale(0.1 -0.1)">
       <use xlink:href="#DejaVuSans-48"/>
      </g>
     </g>
    </g>
    <g id="xtick_2">
     <g id="line2d_3">
      <path clip-path="url(#p3f1d459336)" d="M 187.856526 318.957812 
L 187.856526 23.837812 
" style="fill:none;stroke:#b0b0b0;stroke-dasharray:2.96,1.28;stroke-dashoffset:0;stroke-opacity:0.3;stroke-width:0.8;"/>
     </g>
     <g id="line2d_4">
      <g>
       <use style="stroke:#000000;stroke-width:0.8;" x="187.856526" xlink:href="#ma71a88898f" y="318.957812"/>
      </g>
     </g>
     <g id="text_2">
      <!-- 2 -->
      <defs>
       <path d="M 19.1875 8.296875 
L 53.609375 8.296875 
L 53.609375 0 
L 7.328125 0 
L 7.328125 8.296875 
Q 12.9375 14.109375 22.625 23.890625 
Q 32.328125 33.6875 34.8125 36.53125 
Q 39.546875 41.84375 41.421875 45.53125 
Q 43.3125 49.21875 43.3125 52.78125 
Q 43.3125 58.59375 39.234375 62.25 
Q 35.15625 65.921875 28.609375 65.921875 
Q 23.96875 65.921875 18.8125 64.3125 
Q 13.671875 62.703125 7.8125 59.421875 
L 7.8125 69.390625 
Q 13.765625 71.78125 18.9375 73 
Q 24.125 74.21875 28.421875 74.21875 
Q 39.75 74.21875 46.484375 68.546875 
Q 53.21875 62.890625 53.21875 53.421875 
Q 53.21875 48.921875 51.53125 44.890625 
Q 49.859375 40.875 45.40625 35.40625 
Q 44.1875 33.984375 37.640625 27.21875 
Q 31.109375 20.453125 19.1875 8.296875 
z
" id="DejaVuSans-50"/>
      </defs>
      <g transform="translate(184.675276 333.55625)scale(0.1 -0.1)">
       <use xlink:href="#DejaVuSans-50"/>
      </g>
     </g>
    </g>
    <g id="xtick_3">
     <g id="line2d_5">
      <path clip-path="url(#p3f1d459336)" d="M 290.716916 318.957812 
L 290.716916 23.837812 
" style="fill:none;stroke:#b0b0b0;stroke-dasharray:2.96,1.28;stroke-dashoffset:0;stroke-opacity:0.3;stroke-width:0.8;"/>
     </g>
     <g id="line2d_6">
      <g>
       <use style="stroke:#000000;stroke-width:0.8;" x="290.716916" xlink:href="#ma71a88898f" y="318.957812"/>
      </g>
     </g>
     <g id="text_3">
      <!-- 4 -->
      <defs>
       <path d="M 37.796875 64.3125 
L 12.890625 25.390625 
L 37.796875 25.390625 
z
M 35.203125 72.90625 
L 47.609375 72.90625 
L 47.609375 25.390625 
L 58.015625 25.390625 
L 58.015625 17.1875 
L 47.609375 17.1875 
L 47.609375 0 
L 37.796875 0 
L 37.796875 17.1875 
L 4.890625 17.1875 
L 4.890625 26.703125 
z
" id="DejaVuSans-52"/>
      </defs>
      <g transform="translate(287.535666 333.55625)scale(0.1 -0.1)">
       <use xlink:href="#DejaVuSans-52"/>
      </g>
     </g>
    </g>
    <g id="xtick_4">
     <g id="line2d_7">
      <path clip-path="url(#p3f1d459336)" d="M 393.577305 318.957812 
L 393.577305 23.837812 
" style="fill:none;stroke:#b0b0b0;stroke-dasharray:2.96,1.28;stroke-dashoffset:0;stroke-opacity:0.3;stroke-width:0.8;"/>
     </g>
     <g id="line2d_8">
      <g>
       <use style="stroke:#000000;stroke-width:0.8;" x="393.577305" xlink:href="#ma71a88898f" y="318.957812"/>
      </g>
     </g>
     <g id="text_4">
      <!-- 6 -->
      <defs>
       <path d="M 33.015625 40.375 
Q 26.375 40.375 22.484375 35.828125 
Q 18.609375 31.296875 18.609375 23.390625 
Q 18.609375 15.53125 22.484375 10.953125 
Q 26.375 6.390625 33.015625 6.390625 
Q 39.65625 6.390625 43.53125 10.953125 
Q 47.40625 15.53125 47.40625 23.390625 
Q 47.40625 31.296875 43.53125 35.828125 
Q 39.65625 40.375 33.015625 40.375 
z
M 52.59375 71.296875 
L 52.59375 62.3125 
Q 48.875 64.0625 45.09375 64.984375 
Q 41.3125 65.921875 37.59375 65.921875 
Q 27.828125 65.921875 22.671875 59.328125 
Q 17.53125 52.734375 16.796875 39.40625 
Q 19.671875 43.65625 24.015625 45.921875 
Q 28.375 48.1875 33.59375 48.1875 
Q 44.578125 48.1875 50.953125 41.515625 
Q 57.328125 34.859375 57.328125 23.390625 
Q 57.328125 12.15625 50.6875 5.359375 
Q 44.046875 -1.421875 33.015625 -1.421875 
Q 20.359375 -1.421875 13.671875 8.265625 
Q 6.984375 17.96875 6.984375 36.375 
Q 6.984375 53.65625 15.1875 63.9375 
Q 23.390625 74.21875 37.203125 74.21875 
Q 40.921875 74.21875 44.703125 73.484375 
Q 48.484375 72.75 52.59375 71.296875 
z
" id="DejaVuSans-54"/>
      </defs>
      <g transform="translate(390.396055 333.55625)scale(0.1 -0.1)">
       <use xlink:href="#DejaVuSans-54"/>
      </g>
     </g>
    </g>
    <g id="xtick_5">
     <g id="line2d_9">
      <path clip-path="url(#p3f1d459336)" d="M 496.437695 318.957812 
L 496.437695 23.837812 
" style="fill:none;stroke:#b0b0b0;stroke-dasharray:2.96,1.28;stroke-dashoffset:0;stroke-opacity:0.3;stroke-width:0.8;"/>
     </g>
     <g id="line2d_10">
      <g>
       <use style="stroke:#000000;stroke-width:0.8;" x="496.437695" xlink:href="#ma71a88898f" y="318.957812"/>
      </g>
     </g>
     <g id="text_5">
      <!-- 8 -->
      <defs>
       <path d="M 31.78125 34.625 
Q 24.75 34.625 20.71875 30.859375 
Q 16.703125 27.09375 16.703125 20.515625 
Q 16.703125 13.921875 20.71875 10.15625 
Q 24.75 6.390625 31.78125 6.390625 
Q 38.8125 6.390625 42.859375 10.171875 
Q 46.921875 13.96875 46.921875 20.515625 
Q 46.921875 27.09375 42.890625 30.859375 
Q 38.875 34.625 31.78125 34.625 
z
M 21.921875 38.8125 
Q 15.578125 40.375 12.03125 44.71875 
Q 8.5 49.078125 8.5 55.328125 
Q 8.5 64.0625 14.71875 69.140625 
Q 20.953125 74.21875 31.78125 74.21875 
Q 42.671875 74.21875 48.875 69.140625 
Q 55.078125 64.0625 55.078125 55.328125 
Q 55.078125 49.078125 51.53125 44.71875 
Q 48 40.375 41.703125 38.8125 
Q 48.828125 37.15625 52.796875 32.3125 
Q 56.78125 27.484375 56.78125 20.515625 
Q 56.78125 9.90625 50.3125 4.234375 
Q 43.84375 -1.421875 31.78125 -1.421875 
Q 19.734375 -1.421875 13.25 4.234375 
Q 6.78125 9.90625 6.78125 20.515625 
Q 6.78125 27.484375 10.78125 32.3125 
Q 14.796875 37.15625 21.921875 38.8125 
z
M 18.3125 54.390625 
Q 18.3125 48.734375 21.84375 45.5625 
Q 25.390625 42.390625 31.78125 42.390625 
Q 38.140625 42.390625 41.71875 45.5625 
Q 45.3125 48.734375 45.3125 54.390625 
Q 45.3125 60.0625 41.71875 63.234375 
Q 38.140625 66.40625 31.78125 66.40625 
Q 25.390625 66.40625 21.84375 63.234375 
Q 18.3125 60.0625 18.3125 54.390625 
z
" id="DejaVuSans-56"/>
      </defs>
      <g transform="translate(493.256445 333.55625)scale(0.1 -0.1)">
       <use xlink:href="#DejaVuSans-56"/>
      </g>
     </g>
    </g>
    <g id="xtick_6">
     <g id="line2d_11">
      <path clip-path="url(#p3f1d459336)" d="M 599.298084 318.957812 
L 599.298084 23.837812 
" style="fill:none;stroke:#b0b0b0;stroke-dasharray:2.96,1.28;stroke-dashoffset:0;stroke-opacity:0.3;stroke-width:0.8;"/>
     </g>
     <g id="line2d_12">
      <g>
       <use style="stroke:#000000;stroke-width:0.8;" x="599.298084" xlink:href="#ma71a88898f" y="318.957812"/>
      </g>
     </g>
     <g id="text_6">
      <!-- 10 -->
      <defs>
       <path d="M 12.40625 8.296875 
L 28.515625 8.296875 
L 28.515625 63.921875 
L 10.984375 60.40625 
L 10.984375 69.390625 
L 28.421875 72.90625 
L 38.28125 72.90625 
L 38.28125 8.296875 
L 54.390625 8.296875 
L 54.390625 0 
L 12.40625 0 
z
" id="DejaVuSans-49"/>
      </defs>
      <g transform="translate(592.935584 333.55625)scale(0.1 -0.1)">
       <use xlink:href="#DejaVuSans-49"/>
       <use x="63.623047" xlink:href="#DejaVuSans-48"/>
      </g>
     </g>
    </g>
    <g id="xtick_7">
     <g id="line2d_13">
      <path clip-path="url(#p3f1d459336)" d="M 702.158474 318.957812 
L 702.158474 23.837812 
" style="fill:none;stroke:#b0b0b0;stroke-dasharray:2.96,1.28;stroke-dashoffset:0;stroke-opacity:0.3;stroke-width:0.8;"/>
     </g>
     <g id="line2d_14">
      <g>
       <use style="stroke:#000000;stroke-width:0.8;" x="702.158474" xlink:href="#ma71a88898f" y="318.957812"/>
      </g>
     </g>
     <g id="text_7">
      <!-- 12 -->
      <g transform="translate(695.795974 333.55625)scale(0.1 -0.1)">
       <use xlink:href="#DejaVuSans-49"/>
       <use x="63.623047" xlink:href="#DejaVuSans-50"/>
      </g>
     </g>
    </g>
    <g id="xtick_8">
     <g id="line2d_15">
      <path clip-path="url(#p3f1d459336)" d="M 805.018864 318.957812 
L 805.018864 23.837812 
" style="fill:none;stroke:#b0b0b0;stroke-dasharray:2.96,1.28;stroke-dashoffset:0;stroke-opacity:0.3;stroke-width:0.8;"/>
     </g>
     <g id="line2d_16">
      <g>
       <use style="stroke:#000000;stroke-width:0.8;" x="805.018864" xlink:href="#ma71a88898f" y="318.957812"/>
      </g>
     </g>
     <g id="text_8">
      <!-- 14 -->
      <g transform="translate(798.656364 333.55625)scale(0.1 -0.1)">
       <use xlink:href="#DejaVuSans-49"/>
       <use x="63.623047" xlink:href="#DejaVuSans-52"/>
      </g>
     </g>
    </g>
    <g id="text_9">
     <!-- Episode -->
     <defs>
      <path d="M 9.1875 72.90625 
L 59.90625 72.90625 
L 59.90625 58.6875 
L 27.984375 58.6875 
L 27.984375 45.125 
L 58.015625 45.125 
L 58.015625 30.90625 
L 27.984375 30.90625 
L 27.984375 14.203125 
L 60.984375 14.203125 
L 60.984375 0 
L 9.1875 0 
z
" id="DejaVuSans-Bold-69"/>
      <path d="M 25.875 7.90625 
L 25.875 -20.796875 
L 8.40625 -20.796875 
L 8.40625 54.6875 
L 25.875 54.6875 
L 25.875 46.6875 
Q 29.5 51.46875 33.890625 53.734375 
Q 38.28125 56 44 56 
Q 54.109375 56 60.59375 47.96875 
Q 67.09375 39.9375 67.09375 27.296875 
Q 67.09375 14.65625 60.59375 6.609375 
Q 54.109375 -1.421875 44 -1.421875 
Q 38.28125 -1.421875 33.890625 0.84375 
Q 29.5 3.125 25.875 7.90625 
z
M 37.5 43.3125 
Q 31.890625 43.3125 28.875 39.1875 
Q 25.875 35.0625 25.875 27.296875 
Q 25.875 19.53125 28.875 15.40625 
Q 31.890625 11.28125 37.5 11.28125 
Q 43.109375 11.28125 46.0625 15.375 
Q 49.03125 19.484375 49.03125 27.296875 
Q 49.03125 35.109375 46.0625 39.203125 
Q 43.109375 43.3125 37.5 43.3125 
z
" id="DejaVuSans-Bold-112"/>
      <path d="M 8.40625 54.6875 
L 25.875 54.6875 
L 25.875 0 
L 8.40625 0 
z
M 8.40625 75.984375 
L 25.875 75.984375 
L 25.875 61.71875 
L 8.40625 61.71875 
z
" id="DejaVuSans-Bold-105"/>
      <path d="M 51.125 52.984375 
L 51.125 39.703125 
Q 45.515625 42.046875 40.28125 43.21875 
Q 35.0625 44.390625 30.421875 44.390625 
Q 25.4375 44.390625 23.015625 43.140625 
Q 20.609375 41.890625 20.609375 39.3125 
Q 20.609375 37.203125 22.4375 36.078125 
Q 24.265625 34.96875 29 34.421875 
L 32.078125 33.984375 
Q 45.515625 32.28125 50.140625 28.375 
Q 54.78125 24.46875 54.78125 16.109375 
Q 54.78125 7.375 48.328125 2.96875 
Q 41.890625 -1.421875 29.109375 -1.421875 
Q 23.6875 -1.421875 17.890625 -0.5625 
Q 12.109375 0.296875 6 2 
L 6 15.28125 
Q 11.234375 12.75 16.71875 11.46875 
Q 22.21875 10.203125 27.875 10.203125 
Q 33.015625 10.203125 35.59375 11.609375 
Q 38.1875 13.03125 38.1875 15.828125 
Q 38.1875 18.171875 36.40625 19.3125 
Q 34.625 20.453125 29.296875 21.09375 
L 26.21875 21.484375 
Q 14.546875 22.953125 9.859375 26.90625 
Q 5.171875 30.859375 5.171875 38.921875 
Q 5.171875 47.609375 11.125 51.796875 
Q 17.09375 56 29.390625 56 
Q 34.234375 56 39.546875 55.265625 
Q 44.875 54.546875 51.125 52.984375 
z
" id="DejaVuSans-Bold-115"/>
      <path d="M 34.421875 43.5 
Q 28.609375 43.5 25.5625 39.328125 
Q 22.515625 35.15625 22.515625 27.296875 
Q 22.515625 19.4375 25.5625 15.25 
Q 28.609375 11.078125 34.421875 11.078125 
Q 40.140625 11.078125 43.15625 15.25 
Q 46.1875 19.4375 46.1875 27.296875 
Q 46.1875 35.15625 43.15625 39.328125 
Q 40.140625 43.5 34.421875 43.5 
z
M 34.421875 56 
Q 48.53125 56 56.46875 48.375 
Q 64.40625 40.765625 64.40625 27.296875 
Q 64.40625 13.8125 56.46875 6.1875 
Q 48.53125 -1.421875 34.421875 -1.421875 
Q 20.265625 -1.421875 12.28125 6.1875 
Q 4.296875 13.8125 4.296875 27.296875 
Q 4.296875 40.765625 12.28125 48.375 
Q 20.265625 56 34.421875 56 
z
" id="DejaVuSans-Bold-111"/>
      <path d="M 45.609375 46.6875 
L 45.609375 75.984375 
L 63.1875 75.984375 
L 63.1875 0 
L 45.609375 0 
L 45.609375 7.90625 
Q 42 3.078125 37.640625 0.828125 
Q 33.296875 -1.421875 27.59375 -1.421875 
Q 17.484375 -1.421875 10.984375 6.609375 
Q 4.5 14.65625 4.5 27.296875 
Q 4.5 39.9375 10.984375 47.96875 
Q 17.484375 56 27.59375 56 
Q 33.25 56 37.625 53.734375 
Q 42 51.46875 45.609375 46.6875 
z
M 34.078125 11.28125 
Q 39.703125 11.28125 42.65625 15.375 
Q 45.609375 19.484375 45.609375 27.296875 
Q 45.609375 35.109375 42.65625 39.203125 
Q 39.703125 43.3125 34.078125 43.3125 
Q 28.515625 43.3125 25.5625 39.203125 
Q 22.609375 35.109375 22.609375 27.296875 
Q 22.609375 19.484375 25.5625 15.375 
Q 28.515625 11.28125 34.078125 11.28125 
z
" id="DejaVuSans-Bold-100"/>
      <path d="M 62.984375 27.484375 
L 62.984375 22.515625 
L 22.125 22.515625 
Q 22.75 16.359375 26.5625 13.28125 
Q 30.375 10.203125 37.203125 10.203125 
Q 42.71875 10.203125 48.5 11.84375 
Q 54.296875 13.484375 60.40625 16.796875 
L 60.40625 3.328125 
Q 54.203125 0.984375 48 -0.21875 
Q 41.796875 -1.421875 35.59375 -1.421875 
Q 20.75 -1.421875 12.515625 6.125 
Q 4.296875 13.671875 4.296875 27.296875 
Q 4.296875 40.671875 12.375 48.328125 
Q 20.453125 56 34.625 56 
Q 47.515625 56 55.25 48.234375 
Q 62.984375 40.484375 62.984375 27.484375 
z
M 45.015625 33.296875 
Q 45.015625 38.28125 42.109375 41.328125 
Q 39.203125 44.390625 34.515625 44.390625 
Q 29.4375 44.390625 26.265625 41.53125 
Q 23.09375 38.671875 22.3125 33.296875 
z
" id="DejaVuSans-Bold-101"/>
     </defs>
     <g transform="translate(418.499688 348.754062)scale(0.12 -0.12)">
      <use xlink:href="#DejaVuSans-Bold-69"/>
      <use x="68.310547" xlink:href="#DejaVuSans-Bold-112"/>
      <use x="139.892578" xlink:href="#DejaVuSans-Bold-105"/>
      <use x="174.169922" xlink:href="#DejaVuSans-Bold-115"/>
      <use x="233.691406" xlink:href="#DejaVuSans-Bold-111"/>
      <use x="302.392578" xlink:href="#DejaVuSans-Bold-100"/>
      <use x="373.974609" xlink:href="#DejaVuSans-Bold-101"/>
     </g>
    </g>
   </g>
   <g id="matplotlib.axis_2">
    <g id="ytick_1">
     <g id="line2d_17">
      <path clip-path="url(#p3f1d459336)" d="M 48.995 292.922592 
L 841.02 292.922592 
" style="fill:none;stroke:#b0b0b0;stroke-dasharray:2.96,1.28;stroke-dashoffset:0;stroke-opacity:0.3;stroke-width:0.8;"/>
     </g>
     <g id="line2d_18">
      <defs>
       <path d="M 0 0 
L -3.5 0 
" id="m500229b5e1" style="stroke:#000000;stroke-width:0.8;"/>
      </defs>
      <g>
       <use style="stroke:#000000;stroke-width:0.8;" x="48.995" xlink:href="#m500229b5e1" y="292.922592"/>
      </g>
     </g>
     <g id="text_10">
      <!-- 25 -->
      <defs>
       <path d="M 10.796875 72.90625 
L 49.515625 72.90625 
L 49.515625 64.59375 
L 19.828125 64.59375 
L 19.828125 46.734375 
Q 21.96875 47.46875 24.109375 47.828125 
Q 26.265625 48.1875 28.421875 48.1875 
Q 40.625 48.1875 47.75 41.5 
Q 54.890625 34.8125 54.890625 23.390625 
Q 54.890625 11.625 47.5625 5.09375 
Q 40.234375 -1.421875 26.90625 -1.421875 
Q 22.3125 -1.421875 17.546875 -0.640625 
Q 12.796875 0.140625 7.71875 1.703125 
L 7.71875 11.625 
Q 12.109375 9.234375 16.796875 8.0625 
Q 21.484375 6.890625 26.703125 6.890625 
Q 35.15625 6.890625 40.078125 11.328125 
Q 45.015625 15.765625 45.015625 23.390625 
Q 45.015625 31 40.078125 35.4375 
Q 35.15625 39.890625 26.703125 39.890625 
Q 22.75 39.890625 18.8125 39.015625 
Q 14.890625 38.140625 10.796875 36.28125 
z
" id="DejaVuSans-53"/>
      </defs>
      <g transform="translate(29.27 296.721811)scale(0.1 -0.1)">
       <use xlink:href="#DejaVuSans-50"/>
       <use x="63.623047" xlink:href="#DejaVuSans-53"/>
      </g>
     </g>
    </g>
    <g id="ytick_2">
     <g id="line2d_19">
      <path clip-path="url(#p3f1d459336)" d="M 48.995 256.313882 
L 841.02 256.313882 
" style="fill:none;stroke:#b0b0b0;stroke-dasharray:2.96,1.28;stroke-dashoffset:0;stroke-opacity:0.3;stroke-width:0.8;"/>
     </g>
     <g id="line2d_20">
      <g>
       <use style="stroke:#000000;stroke-width:0.8;" x="48.995" xlink:href="#m500229b5e1" y="256.313882"/>
      </g>
     </g>
     <g id="text_11">
      <!-- 50 -->
      <g transform="translate(29.27 260.113101)scale(0.1 -0.1)">
       <use xlink:href="#DejaVuSans-53"/>
       <use x="63.623047" xlink:href="#DejaVuSans-48"/>
      </g>
     </g>
    </g>
    <g id="ytick_3">
     <g id="line2d_21">
      <path clip-path="url(#p3f1d459336)" d="M 48.995 219.705173 
L 841.02 219.705173 
" style="fill:none;stroke:#b0b0b0;stroke-dasharray:2.96,1.28;stroke-dashoffset:0;stroke-opacity:0.3;stroke-width:0.8;"/>
     </g>
     <g id="line2d_22">
      <g>
       <use style="stroke:#000000;stroke-width:0.8;" x="48.995" xlink:href="#m500229b5e1" y="219.705173"/>
      </g>
     </g>
     <g id="text_12">
      <!-- 75 -->
      <defs>
       <path d="M 8.203125 72.90625 
L 55.078125 72.90625 
L 55.078125 68.703125 
L 28.609375 0 
L 18.3125 0 
L 43.21875 64.59375 
L 8.203125 64.59375 
z
" id="DejaVuSans-55"/>
      </defs>
      <g transform="translate(29.27 223.504392)scale(0.1 -0.1)">
       <use xlink:href="#DejaVuSans-55"/>
       <use x="63.623047" xlink:href="#DejaVuSans-53"/>
      </g>
     </g>
    </g>
    <g id="ytick_4">
     <g id="line2d_23">
      <path clip-path="url(#p3f1d459336)" d="M 48.995 183.096464 
L 841.02 183.096464 
" style="fill:none;stroke:#b0b0b0;stroke-dasharray:2.96,1.28;stroke-dashoffset:0;stroke-opacity:0.3;stroke-width:0.8;"/>
     </g>
     <g id="line2d_24">
      <g>
       <use style="stroke:#000000;stroke-width:0.8;" x="48.995" xlink:href="#m500229b5e1" y="183.096464"/>
      </g>
     </g>
     <g id="text_13">
      <!-- 100 -->
      <g transform="translate(22.9075 186.895682)scale(0.1 -0.1)">
       <use xlink:href="#DejaVuSans-49"/>
       <use x="63.623047" xlink:href="#DejaVuSans-48"/>
       <use x="127.246094" xlink:href="#DejaVuSans-48"/>
      </g>
     </g>
    </g>
    <g id="ytick_5">
     <g id="line2d_25">
      <path clip-path="url(#p3f1d459336)" d="M 48.995 146.487754 
L 841.02 146.487754 
" style="fill:none;stroke:#b0b0b0;stroke-dasharray:2.96,1.28;stroke-dashoffset:0;stroke-opacity:0.3;stroke-width:0.8;"/>
     </g>
     <g id="line2d_26">
      <g>
       <use style="stroke:#000000;stroke-width:0.8;" x="48.995" xlink:href="#m500229b5e1" y="146.487754"/>
      </g>
     </g>
     <g id="text_14">
      <!-- 125 -->
      <g transform="translate(22.9075 150.286973)scale(0.1 -0.1)">
       <use xlink:href="#DejaVuSans-49"/>
       <use x="63.623047" xlink:href="#DejaVuSans-50"/>
       <use x="127.246094" xlink:href="#DejaVuSans-53"/>
      </g>
     </g>
    </g>
    <g id="ytick_6">
     <g id="line2d_27">
      <path clip-path="url(#p3f1d459336)" d="M 48.995 109.879045 
L 841.02 109.879045 
" style="fill:none;stroke:#b0b0b0;stroke-dasharray:2.96,1.28;stroke-dashoffset:0;stroke-opacity:0.3;stroke-width:0.8;"/>
     </g>
     <g id="line2d_28">
      <g>
       <use style="stroke:#000000;stroke-width:0.8;" x="48.995" xlink:href="#m500229b5e1" y="109.879045"/>
      </g>
     </g>
     <g id="text_15">
      <!-- 150 -->
      <g transform="translate(22.9075 113.678264)scale(0.1 -0.1)">
       <use xlink:href="#DejaVuSans-49"/>
       <use x="63.623047" xlink:href="#DejaVuSans-53"/>
       <use x="127.246094" xlink:href="#DejaVuSans-48"/>
      </g>
     </g>
    </g>
    <g id="ytick_7">
     <g id="line2d_29">
      <path clip-path="url(#p3f1d459336)" d="M 48.995 73.270336 
L 841.02 73.270336 
" style="fill:none;stroke:#b0b0b0;stroke-dasharray:2.96,1.28;stroke-dashoffset:0;stroke-opacity:0.3;stroke-width:0.8;"/>
     </g>
     <g id="line2d_30">
      <g>
       <use style="stroke:#000000;stroke-width:0.8;" x="48.995" xlink:href="#m500229b5e1" y="73.270336"/>
      </g>
     </g>
     <g id="text_16">
      <!-- 175 -->
      <g transform="translate(22.9075 77.069554)scale(0.1 -0.1)">
       <use xlink:href="#DejaVuSans-49"/>
       <use x="63.623047" xlink:href="#DejaVuSans-55"/>
       <use x="127.246094" xlink:href="#DejaVuSans-53"/>
      </g>
     </g>
    </g>
    <g id="ytick_8">
     <g id="line2d_31">
      <path clip-path="url(#p3f1d459336)" d="M 48.995 36.661626 
L 841.02 36.661626 
" style="fill:none;stroke:#b0b0b0;stroke-dasharray:2.96,1.28;stroke-dashoffset:0;stroke-opacity:0.3;stroke-width:0.8;"/>
     </g>
     <g id="line2d_32">
      <g>
       <use style="stroke:#000000;stroke-width:0.8;" x="48.995" xlink:href="#m500229b5e1" y="36.661626"/>
      </g>
     </g>
     <g id="text_17">
      <!-- 200 -->
      <g transform="translate(22.9075 40.460845)scale(0.1 -0.1)">
       <use xlink:href="#DejaVuSans-50"/>
       <use x="63.623047" xlink:href="#DejaVuSans-48"/>
       <use x="127.246094" xlink:href="#DejaVuSans-48"/>
      </g>
     </g>
    </g>
    <g id="text_18">
     <!-- Average Reward -->
     <defs>
      <path d="M 53.421875 13.28125 
L 24.03125 13.28125 
L 19.390625 0 
L 0.484375 0 
L 27.484375 72.90625 
L 49.90625 72.90625 
L 76.90625 0 
L 58.015625 0 
z
M 28.71875 26.8125 
L 48.6875 26.8125 
L 38.71875 55.8125 
z
" id="DejaVuSans-Bold-65"/>
      <path d="M 1.515625 54.6875 
L 19 54.6875 
L 32.625 16.890625 
L 46.1875 54.6875 
L 63.71875 54.6875 
L 42.1875 0 
L 23 0 
z
" id="DejaVuSans-Bold-118"/>
      <path d="M 49.03125 39.796875 
Q 46.734375 40.875 44.453125 41.375 
Q 42.1875 41.890625 39.890625 41.890625 
Q 33.15625 41.890625 29.515625 37.5625 
Q 25.875 33.25 25.875 25.203125 
L 25.875 0 
L 8.40625 0 
L 8.40625 54.6875 
L 25.875 54.6875 
L 25.875 45.703125 
Q 29.25 51.078125 33.609375 53.53125 
Q 37.984375 56 44.09375 56 
Q 44.96875 56 45.984375 55.921875 
Q 47.015625 55.859375 48.96875 55.609375 
z
" id="DejaVuSans-Bold-114"/>
      <path d="M 32.90625 24.609375 
Q 27.4375 24.609375 24.671875 22.75 
Q 21.921875 20.90625 21.921875 17.28125 
Q 21.921875 13.96875 24.140625 12.078125 
Q 26.375 10.203125 30.328125 10.203125 
Q 35.25 10.203125 38.625 13.734375 
Q 42 17.28125 42 22.609375 
L 42 24.609375 
z
M 59.625 31.203125 
L 59.625 0 
L 42 0 
L 42 8.109375 
Q 38.484375 3.125 34.078125 0.84375 
Q 29.6875 -1.421875 23.390625 -1.421875 
Q 14.890625 -1.421875 9.59375 3.53125 
Q 4.296875 8.5 4.296875 16.40625 
Q 4.296875 26.03125 10.90625 30.515625 
Q 17.53125 35.015625 31.6875 35.015625 
L 42 35.015625 
L 42 36.375 
Q 42 40.53125 38.71875 42.453125 
Q 35.453125 44.390625 28.515625 44.390625 
Q 22.90625 44.390625 18.0625 43.265625 
Q 13.234375 42.140625 9.078125 39.890625 
L 9.078125 53.21875 
Q 14.703125 54.59375 20.359375 55.296875 
Q 26.03125 56 31.6875 56 
Q 46.484375 56 53.046875 50.171875 
Q 59.625 44.34375 59.625 31.203125 
z
" id="DejaVuSans-Bold-97"/>
      <path d="M 45.609375 9.28125 
Q 42 4.5 37.640625 2.25 
Q 33.296875 0 27.59375 0 
Q 17.578125 0 11.03125 7.875 
Q 4.5 15.765625 4.5 27.984375 
Q 4.5 40.234375 11.03125 48.0625 
Q 17.578125 55.90625 27.59375 55.90625 
Q 33.296875 55.90625 37.640625 53.65625 
Q 42 51.421875 45.609375 46.578125 
L 45.609375 54.6875 
L 63.1875 54.6875 
L 63.1875 5.515625 
Q 63.1875 -7.671875 54.859375 -14.625 
Q 46.53125 -21.578125 30.71875 -21.578125 
Q 25.59375 -21.578125 20.796875 -20.796875 
Q 16.015625 -20.015625 11.1875 -18.40625 
L 11.1875 -4.78125 
Q 15.765625 -7.421875 20.15625 -8.71875 
Q 24.5625 -10.015625 29 -10.015625 
Q 37.59375 -10.015625 41.59375 -6.25 
Q 45.609375 -2.484375 45.609375 5.515625 
z
M 34.078125 43.3125 
Q 28.65625 43.3125 25.625 39.296875 
Q 22.609375 35.296875 22.609375 27.984375 
Q 22.609375 20.453125 25.53125 16.578125 
Q 28.46875 12.703125 34.078125 12.703125 
Q 39.546875 12.703125 42.578125 16.703125 
Q 45.609375 20.703125 45.609375 27.984375 
Q 45.609375 35.296875 42.578125 39.296875 
Q 39.546875 43.3125 34.078125 43.3125 
z
" id="DejaVuSans-Bold-103"/>
      <path id="DejaVuSans-Bold-32"/>
      <path d="M 35.890625 40.578125 
Q 41.796875 40.578125 44.359375 42.765625 
Q 46.921875 44.96875 46.921875 50 
Q 46.921875 54.984375 44.359375 57.125 
Q 41.796875 59.28125 35.890625 59.28125 
L 27.984375 59.28125 
L 27.984375 40.578125 
z
M 27.984375 27.59375 
L 27.984375 0 
L 9.1875 0 
L 9.1875 72.90625 
L 37.890625 72.90625 
Q 52.296875 72.90625 59 68.0625 
Q 65.71875 63.234375 65.71875 52.78125 
Q 65.71875 45.5625 62.21875 40.921875 
Q 58.734375 36.28125 51.703125 34.078125 
Q 55.5625 33.203125 58.609375 30.09375 
Q 61.671875 27 64.796875 20.703125 
L 75 0 
L 54.984375 0 
L 46.09375 18.109375 
Q 43.40625 23.578125 40.640625 25.578125 
Q 37.890625 27.59375 33.296875 27.59375 
z
" id="DejaVuSans-Bold-82"/>
      <path d="M 3.515625 54.6875 
L 20.515625 54.6875 
L 29.6875 17 
L 38.921875 54.6875 
L 53.515625 54.6875 
L 62.703125 17.390625 
L 71.921875 54.6875 
L 88.921875 54.6875 
L 74.515625 0 
L 55.421875 0 
L 46.1875 37.59375 
L 37.015625 0 
L 17.921875 0 
z
" id="DejaVuSans-Bold-119"/>
     </defs>
     <g transform="translate(16.318125 227.015937)rotate(-90)scale(0.12 -0.12)">
      <use xlink:href="#DejaVuSans-Bold-65"/>
      <use x="77.345703" xlink:href="#DejaVuSans-Bold-118"/>
      <use x="142.53125" xlink:href="#DejaVuSans-Bold-101"/>
      <use x="210.353516" xlink:href="#DejaVuSans-Bold-114"/>
      <use x="259.669922" xlink:href="#DejaVuSans-Bold-97"/>
      <use x="327.150391" xlink:href="#DejaVuSans-Bold-103"/>
      <use x="398.732422" xlink:href="#DejaVuSans-Bold-101"/>
      <use x="466.554688" xlink:href="#DejaVuSans-Bold-32"/>
      <use x="501.369141" xlink:href="#DejaVuSans-Bold-82"/>
      <use x="578.371094" xlink:href="#DejaVuSans-Bold-101"/>
      <use x="646.193359" xlink:href="#DejaVuSans-Bold-119"/>
      <use x="738.576172" xlink:href="#DejaVuSans-Bold-97"/>
      <use x="806.056641" xlink:href="#DejaVuSans-Bold-114"/>
      <use x="855.373047" xlink:href="#DejaVuSans-Bold-100"/>
     </g>
    </g>
   </g>
   <g id="line2d_33">
    <path clip-path="url(#p3f1d459336)" d="M 84.996136 276.117733 
L 136.426331 184.664333 
L 187.856526 108.569703 
L 239.286721 80.672222 
L 290.716916 60.243572 
L 342.14711 50.449681 
L 393.577305 41.619146 
L 445.0075 47.808779 
L 496.437695 54.851401 
L 547.86789 51.293294 
L 599.298084 40.856562 
L 650.728279 40.970142 
L 702.158474 37.888052 
L 753.588669 38.033411 
L 805.018864 40.502917 
" style="fill:none;stroke:#0000ff;stroke-linecap:square;stroke-opacity:0.9;stroke-width:2.5;"/>
   </g>
   <g id="line2d_34">
    <path clip-path="url(#p3f1d459336)" d="M 84.996136 299.563199 
L 136.426331 302.529693 
L 187.856526 295.741394 
L 239.286721 288.198756 
L 290.716916 270.324853 
L 342.14711 265.686323 
L 393.577305 225.911215 
L 445.0075 167.125219 
L 496.437695 150.414857 
L 547.86789 138.131153 
L 599.298084 117.398264 
L 650.728279 100.905108 
L 702.158474 108.960245 
L 753.588669 92.07204 
L 805.018864 98.183285 
" style="fill:none;stroke:#008000;stroke-linecap:square;stroke-opacity:0.9;stroke-width:2.5;"/>
   </g>
   <g id="line2d_35">
    <path clip-path="url(#p3f1d459336)" d="M 84.996136 294.749993 
L 136.426331 288.906818 
L 187.856526 284.282275 
L 239.286721 283.447282 
L 290.716916 285.147887 
L 342.14711 286.507415 
L 393.577305 284.735102 
L 445.0075 280.450868 
L 496.437695 279.345537 
L 547.86789 283.996907 
L 599.298084 287.277755 
L 650.728279 287.108556 
L 702.158474 288.571782 
L 753.588669 291.607795 
L 805.018864 293.731345 
" style="fill:none;stroke:#ff0000;stroke-linecap:square;stroke-opacity:0.9;stroke-width:2.5;"/>
   </g>
   <g id="patch_3">
    <path d="M 48.995 318.957812 
L 48.995 23.837812 
" style="fill:none;stroke:#000000;stroke-linecap:square;stroke-linejoin:miter;stroke-width:0.8;"/>
   </g>
   <g id="patch_4">
    <path d="M 841.02 318.957812 
L 841.02 23.837812 
" style="fill:none;stroke:#000000;stroke-linecap:square;stroke-linejoin:miter;stroke-width:0.8;"/>
   </g>
   <g id="patch_5">
    <path d="M 48.995 318.957812 
L 841.02 318.957812 
" style="fill:none;stroke:#000000;stroke-linecap:square;stroke-linejoin:miter;stroke-width:0.8;"/>
   </g>
   <g id="patch_6">
    <path d="M 48.995 23.837812 
L 841.02 23.837812 
" style="fill:none;stroke:#000000;stroke-linecap:square;stroke-linejoin:miter;stroke-width:0.8;"/>
   </g>
   <g id="text_19">
    <!-- Cartpole - First 15 Episodes Comparison -->
    <defs>
     <path d="M 67 4 
Q 61.8125 1.3125 56.203125 -0.046875 
Q 50.59375 -1.421875 44.484375 -1.421875 
Q 26.265625 -1.421875 15.625 8.765625 
Q 4.984375 18.953125 4.984375 36.375 
Q 4.984375 53.859375 15.625 64.03125 
Q 26.265625 74.21875 44.484375 74.21875 
Q 50.59375 74.21875 56.203125 72.84375 
Q 61.8125 71.484375 67 68.796875 
L 67 53.71875 
Q 61.765625 57.28125 56.6875 58.9375 
Q 51.609375 60.59375 46 60.59375 
Q 35.9375 60.59375 30.171875 54.140625 
Q 24.421875 47.703125 24.421875 36.375 
Q 24.421875 25.09375 30.171875 18.640625 
Q 35.9375 12.203125 46 12.203125 
Q 51.609375 12.203125 56.6875 13.859375 
Q 61.765625 15.53125 67 19.09375 
z
" id="DejaVuSans-Bold-67"/>
     <path d="M 27.484375 70.21875 
L 27.484375 54.6875 
L 45.515625 54.6875 
L 45.515625 42.1875 
L 27.484375 42.1875 
L 27.484375 19 
Q 27.484375 15.1875 29 13.84375 
Q 30.515625 12.5 35.015625 12.5 
L 44 12.5 
L 44 0 
L 29 0 
Q 18.65625 0 14.328125 4.3125 
Q 10.015625 8.640625 10.015625 19 
L 10.015625 42.1875 
L 1.3125 42.1875 
L 1.3125 54.6875 
L 10.015625 54.6875 
L 10.015625 70.21875 
z
" id="DejaVuSans-Bold-116"/>
     <path d="M 8.40625 75.984375 
L 25.875 75.984375 
L 25.875 0 
L 8.40625 0 
z
" id="DejaVuSans-Bold-108"/>
     <path d="M 5.421875 35.890625 
L 36.078125 35.890625 
L 36.078125 21.6875 
L 5.421875 21.6875 
z
" id="DejaVuSans-Bold-45"/>
     <path d="M 9.1875 72.90625 
L 59.90625 72.90625 
L 59.90625 58.6875 
L 27.984375 58.6875 
L 27.984375 45.125 
L 58.015625 45.125 
L 58.015625 30.90625 
L 27.984375 30.90625 
L 27.984375 0 
L 9.1875 0 
z
" id="DejaVuSans-Bold-70"/>
     <path d="M 11.71875 12.984375 
L 28.328125 12.984375 
L 28.328125 60.109375 
L 11.28125 56.59375 
L 11.28125 69.390625 
L 28.21875 72.90625 
L 46.09375 72.90625 
L 46.09375 12.984375 
L 62.703125 12.984375 
L 62.703125 0 
L 11.71875 0 
z
" id="DejaVuSans-Bold-49"/>
     <path d="M 10.59375 72.90625 
L 57.328125 72.90625 
L 57.328125 59.078125 
L 25.59375 59.078125 
L 25.59375 47.796875 
Q 27.734375 48.390625 29.90625 48.703125 
Q 32.078125 49.03125 34.421875 49.03125 
Q 47.75 49.03125 55.171875 42.359375 
Q 62.59375 35.6875 62.59375 23.78125 
Q 62.59375 11.96875 54.515625 5.265625 
Q 46.4375 -1.421875 32.078125 -1.421875 
Q 25.875 -1.421875 19.796875 -0.21875 
Q 13.71875 0.984375 7.71875 3.421875 
L 7.71875 18.21875 
Q 13.671875 14.796875 19.015625 13.078125 
Q 24.359375 11.375 29.109375 11.375 
Q 35.9375 11.375 39.859375 14.71875 
Q 43.796875 18.0625 43.796875 23.78125 
Q 43.796875 29.546875 39.859375 32.859375 
Q 35.9375 36.1875 29.109375 36.1875 
Q 25.046875 36.1875 20.453125 35.125 
Q 15.875 34.078125 10.59375 31.890625 
z
" id="DejaVuSans-Bold-53"/>
     <path d="M 59.078125 45.609375 
Q 62.40625 50.6875 66.96875 53.34375 
Q 71.53125 56 77 56 
Q 86.421875 56 91.359375 50.1875 
Q 96.296875 44.390625 96.296875 33.296875 
L 96.296875 0 
L 78.71875 0 
L 78.71875 28.515625 
Q 78.765625 29.15625 78.78125 29.828125 
Q 78.8125 30.515625 78.8125 31.78125 
Q 78.8125 37.59375 77.09375 40.203125 
Q 75.390625 42.828125 71.578125 42.828125 
Q 66.609375 42.828125 63.890625 38.71875 
Q 61.1875 34.625 61.078125 26.859375 
L 61.078125 0 
L 43.5 0 
L 43.5 28.515625 
Q 43.5 37.59375 41.9375 40.203125 
Q 40.375 42.828125 36.375 42.828125 
Q 31.34375 42.828125 28.609375 38.703125 
Q 25.875 34.578125 25.875 26.90625 
L 25.875 0 
L 8.296875 0 
L 8.296875 54.6875 
L 25.875 54.6875 
L 25.875 46.6875 
Q 29.109375 51.3125 33.28125 53.65625 
Q 37.453125 56 42.484375 56 
Q 48.140625 56 52.484375 53.265625 
Q 56.84375 50.53125 59.078125 45.609375 
z
" id="DejaVuSans-Bold-109"/>
     <path d="M 63.375 33.296875 
L 63.375 0 
L 45.796875 0 
L 45.796875 5.421875 
L 45.796875 25.484375 
Q 45.796875 32.5625 45.484375 35.25 
Q 45.171875 37.9375 44.390625 39.203125 
Q 43.359375 40.921875 41.59375 41.875 
Q 39.84375 42.828125 37.59375 42.828125 
Q 32.125 42.828125 29 38.59375 
Q 25.875 34.375 25.875 26.90625 
L 25.875 0 
L 8.40625 0 
L 8.40625 54.6875 
L 25.875 54.6875 
L 25.875 46.6875 
Q 29.828125 51.46875 34.265625 53.734375 
Q 38.71875 56 44.09375 56 
Q 53.5625 56 58.46875 50.1875 
Q 63.375 44.390625 63.375 33.296875 
z
" id="DejaVuSans-Bold-110"/>
    </defs>
    <g transform="translate(286.528594 17.837812)scale(0.14 -0.14)">
     <use xlink:href="#DejaVuSans-Bold-67"/>
     <use x="73.388672" xlink:href="#DejaVuSans-Bold-97"/>
     <use x="140.869141" xlink:href="#DejaVuSans-Bold-114"/>
     <use x="190.185547" xlink:href="#DejaVuSans-Bold-116"/>
     <use x="237.988281" xlink:href="#DejaVuSans-Bold-112"/>
     <use x="309.570312" xlink:href="#DejaVuSans-Bold-111"/>
     <use x="378.271484" xlink:href="#DejaVuSans-Bold-108"/>
     <use x="412.548828" xlink:href="#DejaVuSans-Bold-101"/>
     <use x="480.371094" xlink:href="#DejaVuSans-Bold-32"/>
     <use x="515.185547" xlink:href="#DejaVuSans-Bold-45"/>
     <use x="556.689453" xlink:href="#DejaVuSans-Bold-32"/>
     <use x="591.503906" xlink:href="#DejaVuSans-Bold-70"/>
     <use x="659.814453" xlink:href="#DejaVuSans-Bold-105"/>
     <use x="694.091797" xlink:href="#DejaVuSans-Bold-114"/>
     <use x="743.408203" xlink:href="#DejaVuSans-Bold-115"/>
     <use x="802.929688" xlink:href="#DejaVuSans-Bold-116"/>
     <use x="850.732422" xlink:href="#DejaVuSans-Bold-32"/>
     <use x="885.546875" xlink:href="#DejaVuSans-Bold-49"/>
     <use x="955.126953" xlink:href="#DejaVuSans-Bold-53"/>
     <use x="1024.707031" xlink:href="#DejaVuSans-Bold-32"/>
     <use x="1059.521484" xlink:href="#DejaVuSans-Bold-69"/>
     <use x="1127.832031" xlink:href="#DejaVuSans-Bold-112"/>
     <use x="1199.414062" xlink:href="#DejaVuSans-Bold-105"/>
     <use x="1233.691406" xlink:href="#DejaVuSans-Bold-115"/>
     <use x="1293.212891" xlink:href="#DejaVuSans-Bold-111"/>
     <use x="1361.914062" xlink:href="#DejaVuSans-Bold-100"/>
     <use x="1433.496094" xlink:href="#DejaVuSans-Bold-101"/>
     <use x="1501.318359" xlink:href="#DejaVuSans-Bold-115"/>
     <use x="1560.839844" xlink:href="#DejaVuSans-Bold-32"/>
     <use x="1595.654297" xlink:href="#DejaVuSans-Bold-67"/>
     <use x="1669.042969" xlink:href="#DejaVuSans-Bold-111"/>
     <use x="1737.744141" xlink:href="#DejaVuSans-Bold-109"/>
     <use x="1841.943359" xlink:href="#DejaVuSans-Bold-112"/>
     <use x="1913.525391" xlink:href="#DejaVuSans-Bold-97"/>
     <use x="1981.005859" xlink:href="#DejaVuSans-Bold-114"/>
     <use x="2030.322266" xlink:href="#DejaVuSans-Bold-105"/>
     <use x="2064.599609" xlink:href="#DejaVuSans-Bold-115"/>
     <use x="2124.121094" xlink:href="#DejaVuSans-Bold-111"/>
     <use x="2192.822266" xlink:href="#DejaVuSans-Bold-110"/>
    </g>
   </g>
   <g id="legend_1">
    <g id="patch_7">
     <path d="M 56.695 81.075625 
L 210.074531 81.075625 
Q 212.274531 81.075625 212.274531 78.875625 
L 212.274531 31.537812 
Q 212.274531 29.337812 210.074531 29.337812 
L 56.695 29.337812 
Q 54.495 29.337812 54.495 31.537812 
L 54.495 78.875625 
Q 54.495 81.075625 56.695 81.075625 
z
" style="fill:#ffffff;opacity:0.95;stroke:#000000;stroke-linejoin:miter;"/>
    </g>
    <g id="line2d_36">
     <path d="M 58.895 38.246094 
L 80.895 38.246094 
" style="fill:none;stroke:#0000ff;stroke-linecap:square;stroke-opacity:0.9;stroke-width:2.5;"/>
    </g>
    <g id="line2d_37"/>
    <g id="text_20">
     <!-- PSRL (with oracle) -->
     <defs>
      <path d="M 19.671875 64.796875 
L 19.671875 37.40625 
L 32.078125 37.40625 
Q 38.96875 37.40625 42.71875 40.96875 
Q 46.484375 44.53125 46.484375 51.125 
Q 46.484375 57.671875 42.71875 61.234375 
Q 38.96875 64.796875 32.078125 64.796875 
z
M 9.8125 72.90625 
L 32.078125 72.90625 
Q 44.34375 72.90625 50.609375 67.359375 
Q 56.890625 61.8125 56.890625 51.125 
Q 56.890625 40.328125 50.609375 34.8125 
Q 44.34375 29.296875 32.078125 29.296875 
L 19.671875 29.296875 
L 19.671875 0 
L 9.8125 0 
z
" id="DejaVuSans-80"/>
      <path d="M 53.515625 70.515625 
L 53.515625 60.890625 
Q 47.90625 63.578125 42.921875 64.890625 
Q 37.9375 66.21875 33.296875 66.21875 
Q 25.25 66.21875 20.875 63.09375 
Q 16.5 59.96875 16.5 54.203125 
Q 16.5 49.359375 19.40625 46.890625 
Q 22.3125 44.4375 30.421875 42.921875 
L 36.375 41.703125 
Q 47.40625 39.59375 52.65625 34.296875 
Q 57.90625 29 57.90625 20.125 
Q 57.90625 9.515625 50.796875 4.046875 
Q 43.703125 -1.421875 29.984375 -1.421875 
Q 24.8125 -1.421875 18.96875 -0.25 
Q 13.140625 0.921875 6.890625 3.21875 
L 6.890625 13.375 
Q 12.890625 10.015625 18.65625 8.296875 
Q 24.421875 6.59375 29.984375 6.59375 
Q 38.421875 6.59375 43.015625 9.90625 
Q 47.609375 13.234375 47.609375 19.390625 
Q 47.609375 24.75 44.3125 27.78125 
Q 41.015625 30.8125 33.5 32.328125 
L 27.484375 33.5 
Q 16.453125 35.6875 11.515625 40.375 
Q 6.59375 45.0625 6.59375 53.421875 
Q 6.59375 63.09375 13.40625 68.65625 
Q 20.21875 74.21875 32.171875 74.21875 
Q 37.3125 74.21875 42.625 73.28125 
Q 47.953125 72.359375 53.515625 70.515625 
z
" id="DejaVuSans-83"/>
      <path d="M 44.390625 34.1875 
Q 47.5625 33.109375 50.5625 29.59375 
Q 53.5625 26.078125 56.59375 19.921875 
L 66.609375 0 
L 56 0 
L 46.6875 18.703125 
Q 43.0625 26.03125 39.671875 28.421875 
Q 36.28125 30.8125 30.421875 30.8125 
L 19.671875 30.8125 
L 19.671875 0 
L 9.8125 0 
L 9.8125 72.90625 
L 32.078125 72.90625 
Q 44.578125 72.90625 50.734375 67.671875 
Q 56.890625 62.453125 56.890625 51.90625 
Q 56.890625 45.015625 53.6875 40.46875 
Q 50.484375 35.9375 44.390625 34.1875 
z
M 19.671875 64.796875 
L 19.671875 38.921875 
L 32.078125 38.921875 
Q 39.203125 38.921875 42.84375 42.21875 
Q 46.484375 45.515625 46.484375 51.90625 
Q 46.484375 58.296875 42.84375 61.546875 
Q 39.203125 64.796875 32.078125 64.796875 
z
" id="DejaVuSans-82"/>
      <path d="M 9.8125 72.90625 
L 19.671875 72.90625 
L 19.671875 8.296875 
L 55.171875 8.296875 
L 55.171875 0 
L 9.8125 0 
z
" id="DejaVuSans-76"/>
      <path id="DejaVuSans-32"/>
      <path d="M 31 75.875 
Q 24.46875 64.65625 21.28125 53.65625 
Q 18.109375 42.671875 18.109375 31.390625 
Q 18.109375 20.125 21.3125 9.0625 
Q 24.515625 -2 31 -13.1875 
L 23.1875 -13.1875 
Q 15.875 -1.703125 12.234375 9.375 
Q 8.59375 20.453125 8.59375 31.390625 
Q 8.59375 42.28125 12.203125 53.3125 
Q 15.828125 64.359375 23.1875 75.875 
z
" id="DejaVuSans-40"/>
      <path d="M 4.203125 54.6875 
L 13.1875 54.6875 
L 24.421875 12.015625 
L 35.59375 54.6875 
L 46.1875 54.6875 
L 57.421875 12.015625 
L 68.609375 54.6875 
L 77.59375 54.6875 
L 63.28125 0 
L 52.6875 0 
L 40.921875 44.828125 
L 29.109375 0 
L 18.5 0 
z
" id="DejaVuSans-119"/>
      <path d="M 9.421875 54.6875 
L 18.40625 54.6875 
L 18.40625 0 
L 9.421875 0 
z
M 9.421875 75.984375 
L 18.40625 75.984375 
L 18.40625 64.59375 
L 9.421875 64.59375 
z
" id="DejaVuSans-105"/>
      <path d="M 18.3125 70.21875 
L 18.3125 54.6875 
L 36.8125 54.6875 
L 36.8125 47.703125 
L 18.3125 47.703125 
L 18.3125 18.015625 
Q 18.3125 11.328125 20.140625 9.421875 
Q 21.96875 7.515625 27.59375 7.515625 
L 36.8125 7.515625 
L 36.8125 0 
L 27.59375 0 
Q 17.1875 0 13.234375 3.875 
Q 9.28125 7.765625 9.28125 18.015625 
L 9.28125 47.703125 
L 2.6875 47.703125 
L 2.6875 54.6875 
L 9.28125 54.6875 
L 9.28125 70.21875 
z
" id="DejaVuSans-116"/>
      <path d="M 54.890625 33.015625 
L 54.890625 0 
L 45.90625 0 
L 45.90625 32.71875 
Q 45.90625 40.484375 42.875 44.328125 
Q 39.84375 48.1875 33.796875 48.1875 
Q 26.515625 48.1875 22.3125 43.546875 
Q 18.109375 38.921875 18.109375 30.90625 
L 18.109375 0 
L 9.078125 0 
L 9.078125 75.984375 
L 18.109375 75.984375 
L 18.109375 46.1875 
Q 21.34375 51.125 25.703125 53.5625 
Q 30.078125 56 35.796875 56 
Q 45.21875 56 50.046875 50.171875 
Q 54.890625 44.34375 54.890625 33.015625 
z
" id="DejaVuSans-104"/>
      <path d="M 30.609375 48.390625 
Q 23.390625 48.390625 19.1875 42.75 
Q 14.984375 37.109375 14.984375 27.296875 
Q 14.984375 17.484375 19.15625 11.84375 
Q 23.34375 6.203125 30.609375 6.203125 
Q 37.796875 6.203125 41.984375 11.859375 
Q 46.1875 17.53125 46.1875 27.296875 
Q 46.1875 37.015625 41.984375 42.703125 
Q 37.796875 48.390625 30.609375 48.390625 
z
M 30.609375 56 
Q 42.328125 56 49.015625 48.375 
Q 55.71875 40.765625 55.71875 27.296875 
Q 55.71875 13.875 49.015625 6.21875 
Q 42.328125 -1.421875 30.609375 -1.421875 
Q 18.84375 -1.421875 12.171875 6.21875 
Q 5.515625 13.875 5.515625 27.296875 
Q 5.515625 40.765625 12.171875 48.375 
Q 18.84375 56 30.609375 56 
z
" id="DejaVuSans-111"/>
      <path d="M 41.109375 46.296875 
Q 39.59375 47.171875 37.8125 47.578125 
Q 36.03125 48 33.890625 48 
Q 26.265625 48 22.1875 43.046875 
Q 18.109375 38.09375 18.109375 28.8125 
L 18.109375 0 
L 9.078125 0 
L 9.078125 54.6875 
L 18.109375 54.6875 
L 18.109375 46.1875 
Q 20.953125 51.171875 25.484375 53.578125 
Q 30.03125 56 36.53125 56 
Q 37.453125 56 38.578125 55.875 
Q 39.703125 55.765625 41.0625 55.515625 
z
" id="DejaVuSans-114"/>
      <path d="M 34.28125 27.484375 
Q 23.390625 27.484375 19.1875 25 
Q 14.984375 22.515625 14.984375 16.5 
Q 14.984375 11.71875 18.140625 8.90625 
Q 21.296875 6.109375 26.703125 6.109375 
Q 34.1875 6.109375 38.703125 11.40625 
Q 43.21875 16.703125 43.21875 25.484375 
L 43.21875 27.484375 
z
M 52.203125 31.203125 
L 52.203125 0 
L 43.21875 0 
L 43.21875 8.296875 
Q 40.140625 3.328125 35.546875 0.953125 
Q 30.953125 -1.421875 24.3125 -1.421875 
Q 15.921875 -1.421875 10.953125 3.296875 
Q 6 8.015625 6 15.921875 
Q 6 25.140625 12.171875 29.828125 
Q 18.359375 34.515625 30.609375 34.515625 
L 43.21875 34.515625 
L 43.21875 35.40625 
Q 43.21875 41.609375 39.140625 45 
Q 35.0625 48.390625 27.6875 48.390625 
Q 23 48.390625 18.546875 47.265625 
Q 14.109375 46.140625 10.015625 43.890625 
L 10.015625 52.203125 
Q 14.9375 54.109375 19.578125 55.046875 
Q 24.21875 56 28.609375 56 
Q 40.484375 56 46.34375 49.84375 
Q 52.203125 43.703125 52.203125 31.203125 
z
" id="DejaVuSans-97"/>
      <path d="M 48.78125 52.59375 
L 48.78125 44.1875 
Q 44.96875 46.296875 41.140625 47.34375 
Q 37.3125 48.390625 33.40625 48.390625 
Q 24.65625 48.390625 19.8125 42.84375 
Q 14.984375 37.3125 14.984375 27.296875 
Q 14.984375 17.28125 19.8125 11.734375 
Q 24.65625 6.203125 33.40625 6.203125 
Q 37.3125 6.203125 41.140625 7.25 
Q 44.96875 8.296875 48.78125 10.40625 
L 48.78125 2.09375 
Q 45.015625 0.34375 40.984375 -0.53125 
Q 36.96875 -1.421875 32.421875 -1.421875 
Q 20.0625 -1.421875 12.78125 6.34375 
Q 5.515625 14.109375 5.515625 27.296875 
Q 5.515625 40.671875 12.859375 48.328125 
Q 20.21875 56 33.015625 56 
Q 37.15625 56 41.109375 55.140625 
Q 45.0625 54.296875 48.78125 52.59375 
z
" id="DejaVuSans-99"/>
      <path d="M 9.421875 75.984375 
L 18.40625 75.984375 
L 18.40625 0 
L 9.421875 0 
z
" id="DejaVuSans-108"/>
      <path d="M 56.203125 29.59375 
L 56.203125 25.203125 
L 14.890625 25.203125 
Q 15.484375 15.921875 20.484375 11.0625 
Q 25.484375 6.203125 34.421875 6.203125 
Q 39.59375 6.203125 44.453125 7.46875 
Q 49.3125 8.734375 54.109375 11.28125 
L 54.109375 2.78125 
Q 49.265625 0.734375 44.1875 -0.34375 
Q 39.109375 -1.421875 33.890625 -1.421875 
Q 20.796875 -1.421875 13.15625 6.1875 
Q 5.515625 13.8125 5.515625 26.8125 
Q 5.515625 40.234375 12.765625 48.109375 
Q 20.015625 56 32.328125 56 
Q 43.359375 56 49.78125 48.890625 
Q 56.203125 41.796875 56.203125 29.59375 
z
M 47.21875 32.234375 
Q 47.125 39.59375 43.09375 43.984375 
Q 39.0625 48.390625 32.421875 48.390625 
Q 24.90625 48.390625 20.390625 44.140625 
Q 15.875 39.890625 15.1875 32.171875 
z
" id="DejaVuSans-101"/>
      <path d="M 8.015625 75.875 
L 15.828125 75.875 
Q 23.140625 64.359375 26.78125 53.3125 
Q 30.421875 42.28125 30.421875 31.390625 
Q 30.421875 20.453125 26.78125 9.375 
Q 23.140625 -1.703125 15.828125 -13.1875 
L 8.015625 -13.1875 
Q 14.5 -2 17.703125 9.0625 
Q 20.90625 20.125 20.90625 31.390625 
Q 20.90625 42.671875 17.703125 53.65625 
Q 14.5 64.65625 8.015625 75.875 
z
" id="DejaVuSans-41"/>
     </defs>
     <g transform="translate(89.695 42.096094)scale(0.11 -0.11)">
      <use xlink:href="#DejaVuSans-80"/>
      <use x="60.302734" xlink:href="#DejaVuSans-83"/>
      <use x="123.779297" xlink:href="#DejaVuSans-82"/>
      <use x="193.261719" xlink:href="#DejaVuSans-76"/>
      <use x="248.974609" xlink:href="#DejaVuSans-32"/>
      <use x="280.761719" xlink:href="#DejaVuSans-40"/>
      <use x="319.775391" xlink:href="#DejaVuSans-119"/>
      <use x="401.5625" xlink:href="#DejaVuSans-105"/>
      <use x="429.345703" xlink:href="#DejaVuSans-116"/>
      <use x="468.554688" xlink:href="#DejaVuSans-104"/>
      <use x="531.933594" xlink:href="#DejaVuSans-32"/>
      <use x="563.720703" xlink:href="#DejaVuSans-111"/>
      <use x="624.902344" xlink:href="#DejaVuSans-114"/>
      <use x="666.015625" xlink:href="#DejaVuSans-97"/>
      <use x="727.294922" xlink:href="#DejaVuSans-99"/>
      <use x="782.275391" xlink:href="#DejaVuSans-108"/>
      <use x="810.058594" xlink:href="#DejaVuSans-101"/>
      <use x="871.582031" xlink:href="#DejaVuSans-41"/>
     </g>
    </g>
    <g id="line2d_38">
     <path d="M 58.895 54.392031 
L 80.895 54.392031 
" style="fill:none;stroke:#008000;stroke-linecap:square;stroke-opacity:0.9;stroke-width:2.5;"/>
    </g>
    <g id="line2d_39"/>
    <g id="text_21">
     <!-- PSRL (without oracle) -->
     <defs>
      <path d="M 8.5 21.578125 
L 8.5 54.6875 
L 17.484375 54.6875 
L 17.484375 21.921875 
Q 17.484375 14.15625 20.5 10.265625 
Q 23.53125 6.390625 29.59375 6.390625 
Q 36.859375 6.390625 41.078125 11.03125 
Q 45.3125 15.671875 45.3125 23.6875 
L 45.3125 54.6875 
L 54.296875 54.6875 
L 54.296875 0 
L 45.3125 0 
L 45.3125 8.40625 
Q 42.046875 3.421875 37.71875 1 
Q 33.40625 -1.421875 27.6875 -1.421875 
Q 18.265625 -1.421875 13.375 4.4375 
Q 8.5 10.296875 8.5 21.578125 
z
M 31.109375 56 
z
" id="DejaVuSans-117"/>
     </defs>
     <g transform="translate(89.695 58.242031)scale(0.11 -0.11)">
      <use xlink:href="#DejaVuSans-80"/>
      <use x="60.302734" xlink:href="#DejaVuSans-83"/>
      <use x="123.779297" xlink:href="#DejaVuSans-82"/>
      <use x="193.261719" xlink:href="#DejaVuSans-76"/>
      <use x="248.974609" xlink:href="#DejaVuSans-32"/>
      <use x="280.761719" xlink:href="#DejaVuSans-40"/>
      <use x="319.775391" xlink:href="#DejaVuSans-119"/>
      <use x="401.5625" xlink:href="#DejaVuSans-105"/>
      <use x="429.345703" xlink:href="#DejaVuSans-116"/>
      <use x="468.554688" xlink:href="#DejaVuSans-104"/>
      <use x="531.933594" xlink:href="#DejaVuSans-111"/>
      <use x="593.115234" xlink:href="#DejaVuSans-117"/>
      <use x="656.494141" xlink:href="#DejaVuSans-116"/>
      <use x="695.703125" xlink:href="#DejaVuSans-32"/>
      <use x="727.490234" xlink:href="#DejaVuSans-111"/>
      <use x="788.671875" xlink:href="#DejaVuSans-114"/>
      <use x="829.785156" xlink:href="#DejaVuSans-97"/>
      <use x="891.064453" xlink:href="#DejaVuSans-99"/>
      <use x="946.044922" xlink:href="#DejaVuSans-108"/>
      <use x="973.828125" xlink:href="#DejaVuSans-101"/>
      <use x="1035.351562" xlink:href="#DejaVuSans-41"/>
     </g>
    </g>
    <g id="line2d_40">
     <path d="M 58.895 70.537969 
L 80.895 70.537969 
" style="fill:none;stroke:#ff0000;stroke-linecap:square;stroke-opacity:0.9;stroke-width:2.5;"/>
    </g>
    <g id="line2d_41"/>
    <g id="text_22">
     <!-- PETS -->
     <defs>
      <path d="M 9.8125 72.90625 
L 55.90625 72.90625 
L 55.90625 64.59375 
L 19.671875 64.59375 
L 19.671875 43.015625 
L 54.390625 43.015625 
L 54.390625 34.71875 
L 19.671875 34.71875 
L 19.671875 8.296875 
L 56.78125 8.296875 
L 56.78125 0 
L 9.8125 0 
z
" id="DejaVuSans-69"/>
      <path d="M -0.296875 72.90625 
L 61.375 72.90625 
L 61.375 64.59375 
L 35.5 64.59375 
L 35.5 0 
L 25.59375 0 
L 25.59375 64.59375 
L -0.296875 64.59375 
z
" id="DejaVuSans-84"/>
     </defs>
     <g transform="translate(89.695 74.387969)scale(0.11 -0.11)">
      <use xlink:href="#DejaVuSans-80"/>
      <use x="60.302734" xlink:href="#DejaVuSans-69"/>
      <use x="123.486328" xlink:href="#DejaVuSans-84"/>
      <use x="184.570312" xlink:href="#DejaVuSans-83"/>
     </g>
    </g>
   </g>
  </g>
  <g id="axes_2">
   <g id="patch_8">
    <path d="M 48.995 673.557812 
L 841.02 673.557812 
L 841.02 378.437812 
L 48.995 378.437812 
z
" style="fill:#ffffff;"/>
   </g>
   <g id="PolyCollection_4">
    <defs>
     <path d="M 48.995 -61.579023 
L 48.995 -52.90642 
L 56.91525 -59.789387 
L 64.8355 -66.238518 
L 72.75575 -65.438269 
L 80.676 -64.428558 
L 88.59625 -63.837645 
L 96.5165 -64.850561 
L 104.43675 -67.982407 
L 112.357 -69.172352 
L 120.27725 -66.015749 
L 128.1975 -62.398417 
L 136.11775 -60.65666 
L 144.038 -59.197816 
L 151.95825 -57.292987 
L 159.8785 -55.9108 
L 167.79875 -55.52463 
L 175.719 -56.012728 
L 183.63925 -56.644673 
L 191.5595 -58.265435 
L 199.47975 -60.948483 
L 207.4 -62.829376 
L 215.32025 -63.301921 
L 223.2405 -63.524422 
L 231.16075 -63.806516 
L 239.081 -63.774052 
L 247.00125 -59.852015 
L 254.9215 -57.897143 
L 262.84175 -59.800364 
L 270.762 -62.381222 
L 278.68225 -65.874414 
L 286.6025 -69.220316 
L 294.52275 -67.80692 
L 302.443 -65.009872 
L 310.36325 -62.413858 
L 318.2835 -61.391088 
L 326.20375 -61.16758 
L 334.124 -61.234361 
L 342.04425 -61.291157 
L 349.9645 -59.44965 
L 357.88475 -57.342339 
L 365.805 -55.428502 
L 373.72525 -55.199313 
L 381.6455 -57.075765 
L 389.56575 -60.192203 
L 397.486 -64.612294 
L 405.40625 -66.572897 
L 413.3265 -64.561317 
L 421.24675 -62.828391 
L 429.167 -62.129867 
L 437.08725 -61.464297 
L 445.0075 -60.537891 
L 452.92775 -59.603212 
L 460.848 -60.814689 
L 468.76825 -61.143368 
L 476.6885 -60.388906 
L 484.60875 -59.307422 
L 492.529 -59.063606 
L 500.44925 -58.44363 
L 508.3695 -59.795156 
L 516.28975 -60.36234 
L 524.21 -59.479219 
L 532.13025 -58.145283 
L 540.0505 -56.477106 
L 547.97075 -55.521032 
L 555.891 -58.472202 
L 563.81125 -62.591776 
L 571.7315 -62.792362 
L 579.65175 -59.994429 
L 587.572 -57.921954 
L 595.49225 -57.07755 
L 603.4125 -57.493549 
L 611.33275 -59.688307 
L 619.253 -62.710418 
L 627.17325 -61.775678 
L 635.0935 -58.449573 
L 643.01375 -56.555025 
L 650.934 -56.959916 
L 658.85425 -58.479053 
L 666.7745 -62.693351 
L 674.69475 -67.448925 
L 682.615 -71.681507 
L 690.53525 -71.324805 
L 698.4555 -67.639608 
L 706.37575 -63.235042 
L 714.296 -59.531492 
L 722.21625 -58.381404 
L 730.1365 -59.888297 
L 738.05675 -59.671165 
L 745.977 -57.983565 
L 753.89725 -57.174778 
L 761.8175 -61.567355 
L 769.73775 -66.512243 
L 777.658 -65.846169 
L 785.57825 -63.736677 
L 793.4985 -64.1479 
L 801.41875 -63.25919 
L 809.339 -60.980852 
L 817.25925 -59.804472 
L 825.1795 -59.9449 
L 833.09975 -60.093709 
L 833.09975 -84.175723 
L 833.09975 -84.175723 
L 825.1795 -77.415903 
L 817.25925 -70.700396 
L 809.339 -69.113051 
L 801.41875 -68.487894 
L 793.4985 -66.945652 
L 785.57825 -70.494215 
L 777.658 -75.170115 
L 769.73775 -72.010073 
L 761.8175 -64.791011 
L 753.89725 -60.814498 
L 745.977 -60.491402 
L 738.05675 -64.465438 
L 730.1365 -68.85254 
L 722.21625 -68.252325 
L 714.296 -66.578091 
L 706.37575 -75.207661 
L 698.4555 -85.876478 
L 690.53525 -85.580509 
L 682.615 -80.147814 
L 674.69475 -73.581931 
L 666.7745 -66.060692 
L 658.85425 -63.301512 
L 650.934 -62.985325 
L 643.01375 -64.326843 
L 635.0935 -66.25517 
L 627.17325 -67.90634 
L 619.253 -65.653593 
L 611.33275 -63.053901 
L 603.4125 -61.226331 
L 595.49225 -60.738011 
L 587.572 -62.775568 
L 579.65175 -65.170175 
L 571.7315 -65.563142 
L 563.81125 -65.332881 
L 555.891 -63.917974 
L 547.97075 -61.842181 
L 540.0505 -61.41946 
L 532.13025 -62.476443 
L 524.21 -63.029051 
L 516.28975 -63.96822 
L 508.3695 -64.787865 
L 500.44925 -63.753109 
L 492.529 -62.971814 
L 484.60875 -67.400531 
L 476.6885 -71.513805 
L 468.76825 -75.876356 
L 460.848 -77.518225 
L 452.92775 -71.620212 
L 445.0075 -64.500093 
L 437.08725 -66.863421 
L 429.167 -72.684779 
L 421.24675 -76.106991 
L 413.3265 -78.702427 
L 405.40625 -78.894725 
L 397.486 -77.231636 
L 389.56575 -74.865641 
L 381.6455 -68.640188 
L 373.72525 -63.453508 
L 365.805 -61.701299 
L 357.88475 -61.630183 
L 349.9645 -63.784153 
L 342.04425 -67.64754 
L 334.124 -70.424568 
L 326.20375 -70.897523 
L 318.2835 -72.045199 
L 310.36325 -71.424345 
L 302.443 -72.69294 
L 294.52275 -77.108482 
L 286.6025 -76.885085 
L 278.68225 -74.833127 
L 270.762 -70.25797 
L 262.84175 -66.589003 
L 254.9215 -65.520031 
L 247.00125 -65.582325 
L 239.081 -68.070327 
L 231.16075 -72.284067 
L 223.2405 -72.636353 
L 215.32025 -71.123032 
L 207.4 -68.442655 
L 199.47975 -65.446919 
L 191.5595 -62.73366 
L 183.63925 -60.365426 
L 175.719 -59.202214 
L 167.79875 -59.668303 
L 159.8785 -60.689727 
L 151.95825 -63.716799 
L 144.038 -68.115835 
L 136.11775 -69.695181 
L 128.1975 -67.602105 
L 120.27725 -70.797005 
L 112.357 -77.298334 
L 104.43675 -76.193211 
L 96.5165 -70.429431 
L 88.59625 -67.762383 
L 80.676 -69.994343 
L 72.75575 -72.515705 
L 64.8355 -69.981707 
L 56.91525 -66.828609 
L 48.995 -61.579023 
z
" id="mc8324b4c17" style="stroke:#ff0000;stroke-opacity:0.2;"/>
    </defs>
    <g clip-path="url(#p78dd5e7d9e)">
     <use style="fill:#ff0000;fill-opacity:0.2;stroke:#ff0000;stroke-opacity:0.2;" x="0" xlink:href="#mc8324b4c17" y="713.049687"/>
    </g>
   </g>
   <g id="matplotlib.axis_3">
    <g id="xtick_9">
     <g id="line2d_42">
      <path clip-path="url(#p78dd5e7d9e)" d="M 48.995 673.557812 
L 48.995 378.437812 
" style="fill:none;stroke:#b0b0b0;stroke-dasharray:2.96,1.28;stroke-dashoffset:0;stroke-opacity:0.3;stroke-width:0.8;"/>
     </g>
     <g id="line2d_43">
      <g>
       <use style="stroke:#000000;stroke-width:0.8;" x="48.995" xlink:href="#ma71a88898f" y="673.557812"/>
      </g>
     </g>
     <g id="text_23">
      <!-- 0 -->
      <g transform="translate(45.81375 688.15625)scale(0.1 -0.1)">
       <use xlink:href="#DejaVuSans-48"/>
      </g>
     </g>
    </g>
    <g id="xtick_10">
     <g id="line2d_44">
      <path clip-path="url(#p78dd5e7d9e)" d="M 207.4 673.557812 
L 207.4 378.437812 
" style="fill:none;stroke:#b0b0b0;stroke-dasharray:2.96,1.28;stroke-dashoffset:0;stroke-opacity:0.3;stroke-width:0.8;"/>
     </g>
     <g id="line2d_45">
      <g>
       <use style="stroke:#000000;stroke-width:0.8;" x="207.4" xlink:href="#ma71a88898f" y="673.557812"/>
      </g>
     </g>
     <g id="text_24">
      <!-- 20 -->
      <g transform="translate(201.0375 688.15625)scale(0.1 -0.1)">
       <use xlink:href="#DejaVuSans-50"/>
       <use x="63.623047" xlink:href="#DejaVuSans-48"/>
      </g>
     </g>
    </g>
    <g id="xtick_11">
     <g id="line2d_46">
      <path clip-path="url(#p78dd5e7d9e)" d="M 365.805 673.557812 
L 365.805 378.437812 
" style="fill:none;stroke:#b0b0b0;stroke-dasharray:2.96,1.28;stroke-dashoffset:0;stroke-opacity:0.3;stroke-width:0.8;"/>
     </g>
     <g id="line2d_47">
      <g>
       <use style="stroke:#000000;stroke-width:0.8;" x="365.805" xlink:href="#ma71a88898f" y="673.557812"/>
      </g>
     </g>
     <g id="text_25">
      <!-- 40 -->
      <g transform="translate(359.4425 688.15625)scale(0.1 -0.1)">
       <use xlink:href="#DejaVuSans-52"/>
       <use x="63.623047" xlink:href="#DejaVuSans-48"/>
      </g>
     </g>
    </g>
    <g id="xtick_12">
     <g id="line2d_48">
      <path clip-path="url(#p78dd5e7d9e)" d="M 524.21 673.557812 
L 524.21 378.437812 
" style="fill:none;stroke:#b0b0b0;stroke-dasharray:2.96,1.28;stroke-dashoffset:0;stroke-opacity:0.3;stroke-width:0.8;"/>
     </g>
     <g id="line2d_49">
      <g>
       <use style="stroke:#000000;stroke-width:0.8;" x="524.21" xlink:href="#ma71a88898f" y="673.557812"/>
      </g>
     </g>
     <g id="text_26">
      <!-- 60 -->
      <g transform="translate(517.8475 688.15625)scale(0.1 -0.1)">
       <use xlink:href="#DejaVuSans-54"/>
       <use x="63.623047" xlink:href="#DejaVuSans-48"/>
      </g>
     </g>
    </g>
    <g id="xtick_13">
     <g id="line2d_50">
      <path clip-path="url(#p78dd5e7d9e)" d="M 682.615 673.557812 
L 682.615 378.437812 
" style="fill:none;stroke:#b0b0b0;stroke-dasharray:2.96,1.28;stroke-dashoffset:0;stroke-opacity:0.3;stroke-width:0.8;"/>
     </g>
     <g id="line2d_51">
      <g>
       <use style="stroke:#000000;stroke-width:0.8;" x="682.615" xlink:href="#ma71a88898f" y="673.557812"/>
      </g>
     </g>
     <g id="text_27">
      <!-- 80 -->
      <g transform="translate(676.2525 688.15625)scale(0.1 -0.1)">
       <use xlink:href="#DejaVuSans-56"/>
       <use x="63.623047" xlink:href="#DejaVuSans-48"/>
      </g>
     </g>
    </g>
    <g id="xtick_14">
     <g id="line2d_52">
      <path clip-path="url(#p78dd5e7d9e)" d="M 841.02 673.557812 
L 841.02 378.437812 
" style="fill:none;stroke:#b0b0b0;stroke-dasharray:2.96,1.28;stroke-dashoffset:0;stroke-opacity:0.3;stroke-width:0.8;"/>
     </g>
     <g id="line2d_53">
      <g>
       <use style="stroke:#000000;stroke-width:0.8;" x="841.02" xlink:href="#ma71a88898f" y="673.557812"/>
      </g>
     </g>
     <g id="text_28">
      <!-- 100 -->
      <g transform="translate(831.47625 688.15625)scale(0.1 -0.1)">
       <use xlink:href="#DejaVuSans-49"/>
       <use x="63.623047" xlink:href="#DejaVuSans-48"/>
       <use x="127.246094" xlink:href="#DejaVuSans-48"/>
      </g>
     </g>
    </g>
    <g id="text_29">
     <!-- Episode -->
     <g transform="translate(418.499688 703.354062)scale(0.12 -0.12)">
      <use xlink:href="#DejaVuSans-Bold-69"/>
      <use x="68.310547" xlink:href="#DejaVuSans-Bold-112"/>
      <use x="139.892578" xlink:href="#DejaVuSans-Bold-105"/>
      <use x="174.169922" xlink:href="#DejaVuSans-Bold-115"/>
      <use x="233.691406" xlink:href="#DejaVuSans-Bold-111"/>
      <use x="302.392578" xlink:href="#DejaVuSans-Bold-100"/>
      <use x="373.974609" xlink:href="#DejaVuSans-Bold-101"/>
     </g>
    </g>
   </g>
   <g id="matplotlib.axis_4">
    <g id="ytick_9">
     <g id="line2d_54">
      <path clip-path="url(#p78dd5e7d9e)" d="M 48.995 653.909792 
L 841.02 653.909792 
" style="fill:none;stroke:#b0b0b0;stroke-dasharray:2.96,1.28;stroke-dashoffset:0;stroke-opacity:0.3;stroke-width:0.8;"/>
     </g>
     <g id="line2d_55">
      <g>
       <use style="stroke:#000000;stroke-width:0.8;" x="48.995" xlink:href="#m500229b5e1" y="653.909792"/>
      </g>
     </g>
     <g id="text_30">
      <!-- 25 -->
      <g transform="translate(29.27 657.70901)scale(0.1 -0.1)">
       <use xlink:href="#DejaVuSans-50"/>
       <use x="63.623047" xlink:href="#DejaVuSans-53"/>
      </g>
     </g>
    </g>
    <g id="ytick_10">
     <g id="line2d_56">
      <path clip-path="url(#p78dd5e7d9e)" d="M 48.995 615.903307 
L 841.02 615.903307 
" style="fill:none;stroke:#b0b0b0;stroke-dasharray:2.96,1.28;stroke-dashoffset:0;stroke-opacity:0.3;stroke-width:0.8;"/>
     </g>
     <g id="line2d_57">
      <g>
       <use style="stroke:#000000;stroke-width:0.8;" x="48.995" xlink:href="#m500229b5e1" y="615.903307"/>
      </g>
     </g>
     <g id="text_31">
      <!-- 50 -->
      <g transform="translate(29.27 619.702526)scale(0.1 -0.1)">
       <use xlink:href="#DejaVuSans-53"/>
       <use x="63.623047" xlink:href="#DejaVuSans-48"/>
      </g>
     </g>
    </g>
    <g id="ytick_11">
     <g id="line2d_58">
      <path clip-path="url(#p78dd5e7d9e)" d="M 48.995 577.896823 
L 841.02 577.896823 
" style="fill:none;stroke:#b0b0b0;stroke-dasharray:2.96,1.28;stroke-dashoffset:0;stroke-opacity:0.3;stroke-width:0.8;"/>
     </g>
     <g id="line2d_59">
      <g>
       <use style="stroke:#000000;stroke-width:0.8;" x="48.995" xlink:href="#m500229b5e1" y="577.896823"/>
      </g>
     </g>
     <g id="text_32">
      <!-- 75 -->
      <g transform="translate(29.27 581.696042)scale(0.1 -0.1)">
       <use xlink:href="#DejaVuSans-55"/>
       <use x="63.623047" xlink:href="#DejaVuSans-53"/>
      </g>
     </g>
    </g>
    <g id="ytick_12">
     <g id="line2d_60">
      <path clip-path="url(#p78dd5e7d9e)" d="M 48.995 539.890339 
L 841.02 539.890339 
" style="fill:none;stroke:#b0b0b0;stroke-dasharray:2.96,1.28;stroke-dashoffset:0;stroke-opacity:0.3;stroke-width:0.8;"/>
     </g>
     <g id="line2d_61">
      <g>
       <use style="stroke:#000000;stroke-width:0.8;" x="48.995" xlink:href="#m500229b5e1" y="539.890339"/>
      </g>
     </g>
     <g id="text_33">
      <!-- 100 -->
      <g transform="translate(22.9075 543.689557)scale(0.1 -0.1)">
       <use xlink:href="#DejaVuSans-49"/>
       <use x="63.623047" xlink:href="#DejaVuSans-48"/>
       <use x="127.246094" xlink:href="#DejaVuSans-48"/>
      </g>
     </g>
    </g>
    <g id="ytick_13">
     <g id="line2d_62">
      <path clip-path="url(#p78dd5e7d9e)" d="M 48.995 501.883854 
L 841.02 501.883854 
" style="fill:none;stroke:#b0b0b0;stroke-dasharray:2.96,1.28;stroke-dashoffset:0;stroke-opacity:0.3;stroke-width:0.8;"/>
     </g>
     <g id="line2d_63">
      <g>
       <use style="stroke:#000000;stroke-width:0.8;" x="48.995" xlink:href="#m500229b5e1" y="501.883854"/>
      </g>
     </g>
     <g id="text_34">
      <!-- 125 -->
      <g transform="translate(22.9075 505.683073)scale(0.1 -0.1)">
       <use xlink:href="#DejaVuSans-49"/>
       <use x="63.623047" xlink:href="#DejaVuSans-50"/>
       <use x="127.246094" xlink:href="#DejaVuSans-53"/>
      </g>
     </g>
    </g>
    <g id="ytick_14">
     <g id="line2d_64">
      <path clip-path="url(#p78dd5e7d9e)" d="M 48.995 463.87737 
L 841.02 463.87737 
" style="fill:none;stroke:#b0b0b0;stroke-dasharray:2.96,1.28;stroke-dashoffset:0;stroke-opacity:0.3;stroke-width:0.8;"/>
     </g>
     <g id="line2d_65">
      <g>
       <use style="stroke:#000000;stroke-width:0.8;" x="48.995" xlink:href="#m500229b5e1" y="463.87737"/>
      </g>
     </g>
     <g id="text_35">
      <!-- 150 -->
      <g transform="translate(22.9075 467.676589)scale(0.1 -0.1)">
       <use xlink:href="#DejaVuSans-49"/>
       <use x="63.623047" xlink:href="#DejaVuSans-53"/>
       <use x="127.246094" xlink:href="#DejaVuSans-48"/>
      </g>
     </g>
    </g>
    <g id="ytick_15">
     <g id="line2d_66">
      <path clip-path="url(#p78dd5e7d9e)" d="M 48.995 425.870886 
L 841.02 425.870886 
" style="fill:none;stroke:#b0b0b0;stroke-dasharray:2.96,1.28;stroke-dashoffset:0;stroke-opacity:0.3;stroke-width:0.8;"/>
     </g>
     <g id="line2d_67">
      <g>
       <use style="stroke:#000000;stroke-width:0.8;" x="48.995" xlink:href="#m500229b5e1" y="425.870886"/>
      </g>
     </g>
     <g id="text_36">
      <!-- 175 -->
      <g transform="translate(22.9075 429.670104)scale(0.1 -0.1)">
       <use xlink:href="#DejaVuSans-49"/>
       <use x="63.623047" xlink:href="#DejaVuSans-55"/>
       <use x="127.246094" xlink:href="#DejaVuSans-53"/>
      </g>
     </g>
    </g>
    <g id="ytick_16">
     <g id="line2d_68">
      <path clip-path="url(#p78dd5e7d9e)" d="M 48.995 387.864401 
L 841.02 387.864401 
" style="fill:none;stroke:#b0b0b0;stroke-dasharray:2.96,1.28;stroke-dashoffset:0;stroke-opacity:0.3;stroke-width:0.8;"/>
     </g>
     <g id="line2d_69">
      <g>
       <use style="stroke:#000000;stroke-width:0.8;" x="48.995" xlink:href="#m500229b5e1" y="387.864401"/>
      </g>
     </g>
     <g id="text_37">
      <!-- 200 -->
      <g transform="translate(22.9075 391.66362)scale(0.1 -0.1)">
       <use xlink:href="#DejaVuSans-50"/>
       <use x="63.623047" xlink:href="#DejaVuSans-48"/>
       <use x="127.246094" xlink:href="#DejaVuSans-48"/>
      </g>
     </g>
    </g>
    <g id="text_38">
     <!-- Average Reward -->
     <g transform="translate(16.318125 581.615937)rotate(-90)scale(0.12 -0.12)">
      <use xlink:href="#DejaVuSans-Bold-65"/>
      <use x="77.345703" xlink:href="#DejaVuSans-Bold-118"/>
      <use x="142.53125" xlink:href="#DejaVuSans-Bold-101"/>
      <use x="210.353516" xlink:href="#DejaVuSans-Bold-114"/>
      <use x="259.669922" xlink:href="#DejaVuSans-Bold-97"/>
      <use x="327.150391" xlink:href="#DejaVuSans-Bold-103"/>
      <use x="398.732422" xlink:href="#DejaVuSans-Bold-101"/>
      <use x="466.554688" xlink:href="#DejaVuSans-Bold-32"/>
      <use x="501.369141" xlink:href="#DejaVuSans-Bold-82"/>
      <use x="578.371094" xlink:href="#DejaVuSans-Bold-101"/>
      <use x="646.193359" xlink:href="#DejaVuSans-Bold-119"/>
      <use x="738.576172" xlink:href="#DejaVuSans-Bold-97"/>
      <use x="806.056641" xlink:href="#DejaVuSans-Bold-114"/>
      <use x="855.373047" xlink:href="#DejaVuSans-Bold-100"/>
     </g>
    </g>
   </g>
   <g id="line2d_70">
    <path clip-path="url(#p78dd5e7d9e)" d="M 48.995 655.806966 
L 56.91525 649.74069 
L 64.8355 644.939575 
L 72.75575 644.072701 
L 80.676 645.838237 
L 88.59625 647.249673 
L 96.5165 645.409691 
L 104.43675 640.961879 
L 112.357 639.814345 
L 120.27725 644.643311 
L 128.1975 648.049427 
L 136.11775 647.873767 
L 144.038 649.392862 
L 151.95825 652.544794 
L 159.8785 654.749424 
L 167.79875 655.453221 
L 175.719 655.442216 
L 183.63925 654.544638 
L 191.5595 652.55014 
L 199.47975 649.851986 
L 207.4 647.413672 
L 215.32025 645.837211 
L 223.2405 644.9693 
L 231.16075 645.004396 
L 239.081 647.127498 
L 247.00125 650.332518 
L 254.9215 651.3411 
L 262.84175 649.855004 
L 270.762 646.730091 
L 278.68225 642.695917 
L 286.6025 639.996987 
L 294.52275 640.591986 
L 302.443 644.198281 
L 310.36325 646.130586 
L 318.2835 646.331544 
L 326.20375 647.017136 
L 334.124 647.220223 
L 342.04425 648.580339 
L 349.9645 651.432786 
L 357.88475 653.563427 
L 365.805 654.484787 
L 373.72525 653.723277 
L 381.6455 650.191711 
L 389.56575 645.520765 
L 397.486 642.127723 
L 405.40625 640.315877 
L 413.3265 641.417815 
L 421.24675 643.581996 
L 429.167 645.642365 
L 437.08725 648.885828 
L 445.0075 650.530696 
L 452.92775 647.437975 
L 460.848 643.883231 
L 468.76825 644.539826 
L 476.6885 647.098332 
L 484.60875 649.695711 
L 492.529 652.031978 
L 500.44925 651.951318 
L 508.3695 650.758177 
L 516.28975 650.884407 
L 524.21 651.795552 
L 532.13025 652.738825 
L 540.0505 654.101404 
L 547.97075 654.368081 
L 555.891 651.8546 
L 563.81125 649.087359 
L 571.7315 648.871936 
L 579.65175 650.467385 
L 587.572 652.700926 
L 595.49225 654.141907 
L 603.4125 653.689747 
L 611.33275 651.678583 
L 619.253 648.867682 
L 627.17325 648.208678 
L 635.0935 650.697316 
L 643.01375 652.608753 
L 650.934 653.077067 
L 658.85425 652.159405 
L 666.7745 648.672666 
L 674.69475 642.534259 
L 682.615 637.135027 
L 690.53525 634.59703 
L 698.4555 636.291644 
L 706.37575 643.828336 
L 714.296 649.994896 
L 722.21625 649.732823 
L 730.1365 648.679269 
L 738.05675 650.981386 
L 745.977 653.812204 
L 753.89725 654.05505 
L 761.8175 649.870505 
L 769.73775 643.788529 
L 777.658 642.541545 
L 785.57825 645.934241 
L 793.4985 647.502911 
L 801.41875 647.176146 
L 809.339 648.002736 
L 817.25925 647.797254 
L 825.1795 644.369286 
L 833.09975 640.914971 
" style="fill:none;stroke:#ff0000;stroke-linecap:square;stroke-opacity:0.9;stroke-width:2.5;"/>
   </g>
   <g id="line2d_71">
    <path clip-path="url(#p78dd5e7d9e)" d="M 48.995 391.852358 
L 841.02 391.852358 
" style="fill:none;stroke:#0000ff;stroke-dasharray:7.4,3.2;stroke-dashoffset:0;stroke-opacity:0.7;stroke-width:2;"/>
   </g>
   <g id="line2d_72">
    <path clip-path="url(#p78dd5e7d9e)" d="M 48.995 451.735049 
L 841.02 451.735049 
" style="fill:none;stroke:#008000;stroke-dasharray:7.4,3.2;stroke-dashoffset:0;stroke-opacity:0.7;stroke-width:2;"/>
   </g>
   <g id="patch_9">
    <path d="M 48.995 673.557812 
L 48.995 378.437812 
" style="fill:none;stroke:#000000;stroke-linecap:square;stroke-linejoin:miter;stroke-width:0.8;"/>
   </g>
   <g id="patch_10">
    <path d="M 841.02 673.557812 
L 841.02 378.437812 
" style="fill:none;stroke:#000000;stroke-linecap:square;stroke-linejoin:miter;stroke-width:0.8;"/>
   </g>
   <g id="patch_11">
    <path d="M 48.995 673.557812 
L 841.02 673.557812 
" style="fill:none;stroke:#000000;stroke-linecap:square;stroke-linejoin:miter;stroke-width:0.8;"/>
   </g>
   <g id="patch_12">
    <path d="M 48.995 378.437812 
L 841.02 378.437812 
" style="fill:none;stroke:#000000;stroke-linecap:square;stroke-linejoin:miter;stroke-width:0.8;"/>
   </g>
   <g id="text_39">
    <!-- Cartpole - PETS Extended Learning (100 Episodes) -->
    <defs>
     <path d="M 9.1875 72.90625 
L 40.375 72.90625 
Q 54.296875 72.90625 61.734375 66.71875 
Q 69.1875 60.546875 69.1875 49.125 
Q 69.1875 37.640625 61.734375 31.46875 
Q 54.296875 25.296875 40.375 25.296875 
L 27.984375 25.296875 
L 27.984375 0 
L 9.1875 0 
z
M 27.984375 59.28125 
L 27.984375 38.921875 
L 38.375 38.921875 
Q 43.84375 38.921875 46.828125 41.578125 
Q 49.8125 44.234375 49.8125 49.125 
Q 49.8125 54 46.828125 56.640625 
Q 43.84375 59.28125 38.375 59.28125 
z
" id="DejaVuSans-Bold-80"/>
     <path d="M 0.484375 72.90625 
L 67.671875 72.90625 
L 67.671875 58.6875 
L 43.5 58.6875 
L 43.5 0 
L 24.703125 0 
L 24.703125 58.6875 
L 0.484375 58.6875 
z
" id="DejaVuSans-Bold-84"/>
     <path d="M 59.90625 70.609375 
L 59.90625 55.171875 
Q 53.90625 57.859375 48.1875 59.21875 
Q 42.484375 60.59375 37.40625 60.59375 
Q 30.671875 60.59375 27.4375 58.734375 
Q 24.21875 56.890625 24.21875 52.984375 
Q 24.21875 50.046875 26.390625 48.40625 
Q 28.5625 46.78125 34.28125 45.609375 
L 42.28125 44 
Q 54.4375 41.546875 59.5625 36.5625 
Q 64.703125 31.59375 64.703125 22.40625 
Q 64.703125 10.359375 57.546875 4.46875 
Q 50.390625 -1.421875 35.6875 -1.421875 
Q 28.765625 -1.421875 21.78125 -0.09375 
Q 14.796875 1.21875 7.8125 3.8125 
L 7.8125 19.671875 
Q 14.796875 15.96875 21.3125 14.078125 
Q 27.828125 12.203125 33.890625 12.203125 
Q 40.046875 12.203125 43.3125 14.25 
Q 46.578125 16.3125 46.578125 20.125 
Q 46.578125 23.53125 44.359375 25.390625 
Q 42.140625 27.25 35.5 28.71875 
L 28.21875 30.328125 
Q 17.28125 32.671875 12.21875 37.796875 
Q 7.171875 42.921875 7.171875 51.609375 
Q 7.171875 62.5 14.203125 68.359375 
Q 21.234375 74.21875 34.421875 74.21875 
Q 40.4375 74.21875 46.78125 73.3125 
Q 53.125 72.40625 59.90625 70.609375 
z
" id="DejaVuSans-Bold-83"/>
     <path d="M 22.21875 27.984375 
L 2.484375 54.6875 
L 21 54.6875 
L 32.171875 38.484375 
L 43.5 54.6875 
L 62.015625 54.6875 
L 42.28125 28.078125 
L 62.984375 0 
L 44.484375 0 
L 32.171875 17.28125 
L 20.015625 0 
L 1.515625 0 
z
" id="DejaVuSans-Bold-120"/>
     <path d="M 9.1875 72.90625 
L 27.984375 72.90625 
L 27.984375 14.203125 
L 60.984375 14.203125 
L 60.984375 0 
L 9.1875 0 
z
" id="DejaVuSans-Bold-76"/>
     <path d="M 37.703125 -13.1875 
L 23.1875 -13.1875 
Q 15.71875 -1.125 12.15625 9.734375 
Q 8.59375 20.609375 8.59375 31.296875 
Q 8.59375 42 12.171875 52.953125 
Q 15.765625 63.921875 23.1875 75.875 
L 37.703125 75.875 
Q 31.453125 64.3125 28.328125 53.25 
Q 25.203125 42.1875 25.203125 31.390625 
Q 25.203125 20.609375 28.296875 9.515625 
Q 31.390625 -1.5625 37.703125 -13.1875 
z
" id="DejaVuSans-Bold-40"/>
     <path d="M 46 36.53125 
Q 46 50.203125 43.4375 55.78125 
Q 40.875 61.375 34.8125 61.375 
Q 28.765625 61.375 26.171875 55.78125 
Q 23.578125 50.203125 23.578125 36.53125 
Q 23.578125 22.703125 26.171875 17.03125 
Q 28.765625 11.375 34.8125 11.375 
Q 40.828125 11.375 43.40625 17.03125 
Q 46 22.703125 46 36.53125 
z
M 64.796875 36.375 
Q 64.796875 18.265625 56.984375 8.421875 
Q 49.171875 -1.421875 34.8125 -1.421875 
Q 20.40625 -1.421875 12.59375 8.421875 
Q 4.78125 18.265625 4.78125 36.375 
Q 4.78125 54.546875 12.59375 64.375 
Q 20.40625 74.21875 34.8125 74.21875 
Q 49.171875 74.21875 56.984375 64.375 
Q 64.796875 54.546875 64.796875 36.375 
z
" id="DejaVuSans-Bold-48"/>
     <path d="M 8.015625 -13.1875 
Q 14.265625 -1.5625 17.390625 9.515625 
Q 20.515625 20.609375 20.515625 31.390625 
Q 20.515625 42.1875 17.390625 53.25 
Q 14.265625 64.3125 8.015625 75.875 
L 22.515625 75.875 
Q 29.9375 63.921875 33.515625 52.953125 
Q 37.109375 42 37.109375 31.296875 
Q 37.109375 20.609375 33.546875 9.734375 
Q 29.984375 -1.125 22.515625 -13.1875 
z
" id="DejaVuSans-Bold-41"/>
    </defs>
    <g transform="translate(246.121094 372.437812)scale(0.14 -0.14)">
     <use xlink:href="#DejaVuSans-Bold-67"/>
     <use x="73.388672" xlink:href="#DejaVuSans-Bold-97"/>
     <use x="140.869141" xlink:href="#DejaVuSans-Bold-114"/>
     <use x="190.185547" xlink:href="#DejaVuSans-Bold-116"/>
     <use x="237.988281" xlink:href="#DejaVuSans-Bold-112"/>
     <use x="309.570312" xlink:href="#DejaVuSans-Bold-111"/>
     <use x="378.271484" xlink:href="#DejaVuSans-Bold-108"/>
     <use x="412.548828" xlink:href="#DejaVuSans-Bold-101"/>
     <use x="480.371094" xlink:href="#DejaVuSans-Bold-32"/>
     <use x="515.185547" xlink:href="#DejaVuSans-Bold-45"/>
     <use x="556.689453" xlink:href="#DejaVuSans-Bold-32"/>
     <use x="591.503906" xlink:href="#DejaVuSans-Bold-80"/>
     <use x="664.794922" xlink:href="#DejaVuSans-Bold-69"/>
     <use x="733.105469" xlink:href="#DejaVuSans-Bold-84"/>
     <use x="801.318359" xlink:href="#DejaVuSans-Bold-83"/>
     <use x="873.339844" xlink:href="#DejaVuSans-Bold-32"/>
     <use x="908.154297" xlink:href="#DejaVuSans-Bold-69"/>
     <use x="976.464844" xlink:href="#DejaVuSans-Bold-120"/>
     <use x="1040.966797" xlink:href="#DejaVuSans-Bold-116"/>
     <use x="1088.769531" xlink:href="#DejaVuSans-Bold-101"/>
     <use x="1156.591797" xlink:href="#DejaVuSans-Bold-110"/>
     <use x="1227.783203" xlink:href="#DejaVuSans-Bold-100"/>
     <use x="1299.365234" xlink:href="#DejaVuSans-Bold-101"/>
     <use x="1367.1875" xlink:href="#DejaVuSans-Bold-100"/>
     <use x="1438.769531" xlink:href="#DejaVuSans-Bold-32"/>
     <use x="1473.583984" xlink:href="#DejaVuSans-Bold-76"/>
     <use x="1537.304688" xlink:href="#DejaVuSans-Bold-101"/>
     <use x="1605.126953" xlink:href="#DejaVuSans-Bold-97"/>
     <use x="1672.607422" xlink:href="#DejaVuSans-Bold-114"/>
     <use x="1721.923828" xlink:href="#DejaVuSans-Bold-110"/>
     <use x="1793.115234" xlink:href="#DejaVuSans-Bold-105"/>
     <use x="1827.392578" xlink:href="#DejaVuSans-Bold-110"/>
     <use x="1898.583984" xlink:href="#DejaVuSans-Bold-103"/>
     <use x="1970.166016" xlink:href="#DejaVuSans-Bold-32"/>
     <use x="2004.980469" xlink:href="#DejaVuSans-Bold-40"/>
     <use x="2050.683594" xlink:href="#DejaVuSans-Bold-49"/>
     <use x="2120.263672" xlink:href="#DejaVuSans-Bold-48"/>
     <use x="2189.84375" xlink:href="#DejaVuSans-Bold-48"/>
     <use x="2259.423828" xlink:href="#DejaVuSans-Bold-32"/>
     <use x="2294.238281" xlink:href="#DejaVuSans-Bold-69"/>
     <use x="2362.548828" xlink:href="#DejaVuSans-Bold-112"/>
     <use x="2434.130859" xlink:href="#DejaVuSans-Bold-105"/>
     <use x="2468.408203" xlink:href="#DejaVuSans-Bold-115"/>
     <use x="2527.929688" xlink:href="#DejaVuSans-Bold-111"/>
     <use x="2596.630859" xlink:href="#DejaVuSans-Bold-100"/>
     <use x="2668.212891" xlink:href="#DejaVuSans-Bold-101"/>
     <use x="2736.035156" xlink:href="#DejaVuSans-Bold-115"/>
     <use x="2795.556641" xlink:href="#DejaVuSans-Bold-41"/>
    </g>
   </g>
   <g id="legend_2">
    <g id="patch_13">
     <path d="M 598.6825 549.515 
L 834.02 549.515 
Q 836.02 549.515 836.02 547.515 
L 836.02 504.480625 
Q 836.02 502.480625 834.02 502.480625 
L 598.6825 502.480625 
Q 596.6825 502.480625 596.6825 504.480625 
L 596.6825 547.515 
Q 596.6825 549.515 598.6825 549.515 
z
" style="fill:#ffffff;opacity:0.95;stroke:#000000;stroke-linejoin:miter;"/>
    </g>
    <g id="line2d_73">
     <path d="M 600.6825 510.579062 
L 620.6825 510.579062 
" style="fill:none;stroke:#ff0000;stroke-linecap:square;stroke-opacity:0.9;stroke-width:2.5;"/>
    </g>
    <g id="line2d_74"/>
    <g id="text_40">
     <!-- PETS (full 100 episodes) -->
     <defs>
      <path d="M 37.109375 75.984375 
L 37.109375 68.5 
L 28.515625 68.5 
Q 23.6875 68.5 21.796875 66.546875 
Q 19.921875 64.59375 19.921875 59.515625 
L 19.921875 54.6875 
L 34.71875 54.6875 
L 34.71875 47.703125 
L 19.921875 47.703125 
L 19.921875 0 
L 10.890625 0 
L 10.890625 47.703125 
L 2.296875 47.703125 
L 2.296875 54.6875 
L 10.890625 54.6875 
L 10.890625 58.5 
Q 10.890625 67.625 15.140625 71.796875 
Q 19.390625 75.984375 28.609375 75.984375 
z
" id="DejaVuSans-102"/>
      <path d="M 18.109375 8.203125 
L 18.109375 -20.796875 
L 9.078125 -20.796875 
L 9.078125 54.6875 
L 18.109375 54.6875 
L 18.109375 46.390625 
Q 20.953125 51.265625 25.265625 53.625 
Q 29.59375 56 35.59375 56 
Q 45.5625 56 51.78125 48.09375 
Q 58.015625 40.1875 58.015625 27.296875 
Q 58.015625 14.40625 51.78125 6.484375 
Q 45.5625 -1.421875 35.59375 -1.421875 
Q 29.59375 -1.421875 25.265625 0.953125 
Q 20.953125 3.328125 18.109375 8.203125 
z
M 48.6875 27.296875 
Q 48.6875 37.203125 44.609375 42.84375 
Q 40.53125 48.484375 33.40625 48.484375 
Q 26.265625 48.484375 22.1875 42.84375 
Q 18.109375 37.203125 18.109375 27.296875 
Q 18.109375 17.390625 22.1875 11.75 
Q 26.265625 6.109375 33.40625 6.109375 
Q 40.53125 6.109375 44.609375 11.75 
Q 48.6875 17.390625 48.6875 27.296875 
z
" id="DejaVuSans-112"/>
      <path d="M 44.28125 53.078125 
L 44.28125 44.578125 
Q 40.484375 46.53125 36.375 47.5 
Q 32.28125 48.484375 27.875 48.484375 
Q 21.1875 48.484375 17.84375 46.4375 
Q 14.5 44.390625 14.5 40.28125 
Q 14.5 37.15625 16.890625 35.375 
Q 19.28125 33.59375 26.515625 31.984375 
L 29.59375 31.296875 
Q 39.15625 29.25 43.1875 25.515625 
Q 47.21875 21.78125 47.21875 15.09375 
Q 47.21875 7.46875 41.1875 3.015625 
Q 35.15625 -1.421875 24.609375 -1.421875 
Q 20.21875 -1.421875 15.453125 -0.5625 
Q 10.6875 0.296875 5.421875 2 
L 5.421875 11.28125 
Q 10.40625 8.6875 15.234375 7.390625 
Q 20.0625 6.109375 24.8125 6.109375 
Q 31.15625 6.109375 34.5625 8.28125 
Q 37.984375 10.453125 37.984375 14.40625 
Q 37.984375 18.0625 35.515625 20.015625 
Q 33.0625 21.96875 24.703125 23.78125 
L 21.578125 24.515625 
Q 13.234375 26.265625 9.515625 29.90625 
Q 5.8125 33.546875 5.8125 39.890625 
Q 5.8125 47.609375 11.28125 51.796875 
Q 16.75 56 26.8125 56 
Q 31.78125 56 36.171875 55.265625 
Q 40.578125 54.546875 44.28125 53.078125 
z
" id="DejaVuSans-115"/>
      <path d="M 45.40625 46.390625 
L 45.40625 75.984375 
L 54.390625 75.984375 
L 54.390625 0 
L 45.40625 0 
L 45.40625 8.203125 
Q 42.578125 3.328125 38.25 0.953125 
Q 33.9375 -1.421875 27.875 -1.421875 
Q 17.96875 -1.421875 11.734375 6.484375 
Q 5.515625 14.40625 5.515625 27.296875 
Q 5.515625 40.1875 11.734375 48.09375 
Q 17.96875 56 27.875 56 
Q 33.9375 56 38.25 53.625 
Q 42.578125 51.265625 45.40625 46.390625 
z
M 14.796875 27.296875 
Q 14.796875 17.390625 18.875 11.75 
Q 22.953125 6.109375 30.078125 6.109375 
Q 37.203125 6.109375 41.296875 11.75 
Q 45.40625 17.390625 45.40625 27.296875 
Q 45.40625 37.203125 41.296875 42.84375 
Q 37.203125 48.484375 30.078125 48.484375 
Q 22.953125 48.484375 18.875 42.84375 
Q 14.796875 37.203125 14.796875 27.296875 
z
" id="DejaVuSans-100"/>
     </defs>
     <g transform="translate(628.6825 514.079062)scale(0.1 -0.1)">
      <use xlink:href="#DejaVuSans-80"/>
      <use x="60.302734" xlink:href="#DejaVuSans-69"/>
      <use x="123.486328" xlink:href="#DejaVuSans-84"/>
      <use x="184.570312" xlink:href="#DejaVuSans-83"/>
      <use x="248.046875" xlink:href="#DejaVuSans-32"/>
      <use x="279.833984" xlink:href="#DejaVuSans-40"/>
      <use x="318.847656" xlink:href="#DejaVuSans-102"/>
      <use x="354.052734" xlink:href="#DejaVuSans-117"/>
      <use x="417.431641" xlink:href="#DejaVuSans-108"/>
      <use x="445.214844" xlink:href="#DejaVuSans-108"/>
      <use x="472.998047" xlink:href="#DejaVuSans-32"/>
      <use x="504.785156" xlink:href="#DejaVuSans-49"/>
      <use x="568.408203" xlink:href="#DejaVuSans-48"/>
      <use x="632.03125" xlink:href="#DejaVuSans-48"/>
      <use x="695.654297" xlink:href="#DejaVuSans-32"/>
      <use x="727.441406" xlink:href="#DejaVuSans-101"/>
      <use x="788.964844" xlink:href="#DejaVuSans-112"/>
      <use x="852.441406" xlink:href="#DejaVuSans-105"/>
      <use x="880.224609" xlink:href="#DejaVuSans-115"/>
      <use x="932.324219" xlink:href="#DejaVuSans-111"/>
      <use x="993.505859" xlink:href="#DejaVuSans-100"/>
      <use x="1056.982422" xlink:href="#DejaVuSans-101"/>
      <use x="1118.505859" xlink:href="#DejaVuSans-115"/>
      <use x="1170.605469" xlink:href="#DejaVuSans-41"/>
     </g>
    </g>
    <g id="line2d_75">
     <path d="M 600.6825 525.257187 
L 620.6825 525.257187 
" style="fill:none;stroke:#0000ff;stroke-dasharray:7.4,3.2;stroke-dashoffset:0;stroke-opacity:0.7;stroke-width:2;"/>
    </g>
    <g id="line2d_76"/>
    <g id="text_41">
     <!-- PSRL WITH oracle Episode 14: 197.4 -->
     <defs>
      <path d="M 3.328125 72.90625 
L 13.28125 72.90625 
L 28.609375 11.28125 
L 43.890625 72.90625 
L 54.984375 72.90625 
L 70.3125 11.28125 
L 85.59375 72.90625 
L 95.609375 72.90625 
L 77.296875 0 
L 64.890625 0 
L 49.515625 63.28125 
L 33.984375 0 
L 21.578125 0 
z
" id="DejaVuSans-87"/>
      <path d="M 9.8125 72.90625 
L 19.671875 72.90625 
L 19.671875 0 
L 9.8125 0 
z
" id="DejaVuSans-73"/>
      <path d="M 9.8125 72.90625 
L 19.671875 72.90625 
L 19.671875 43.015625 
L 55.515625 43.015625 
L 55.515625 72.90625 
L 65.375 72.90625 
L 65.375 0 
L 55.515625 0 
L 55.515625 34.71875 
L 19.671875 34.71875 
L 19.671875 0 
L 9.8125 0 
z
" id="DejaVuSans-72"/>
      <path d="M 11.71875 12.40625 
L 22.015625 12.40625 
L 22.015625 0 
L 11.71875 0 
z
M 11.71875 51.703125 
L 22.015625 51.703125 
L 22.015625 39.3125 
L 11.71875 39.3125 
z
" id="DejaVuSans-58"/>
      <path d="M 10.984375 1.515625 
L 10.984375 10.5 
Q 14.703125 8.734375 18.5 7.8125 
Q 22.3125 6.890625 25.984375 6.890625 
Q 35.75 6.890625 40.890625 13.453125 
Q 46.046875 20.015625 46.78125 33.40625 
Q 43.953125 29.203125 39.59375 26.953125 
Q 35.25 24.703125 29.984375 24.703125 
Q 19.046875 24.703125 12.671875 31.3125 
Q 6.296875 37.9375 6.296875 49.421875 
Q 6.296875 60.640625 12.9375 67.421875 
Q 19.578125 74.21875 30.609375 74.21875 
Q 43.265625 74.21875 49.921875 64.515625 
Q 56.59375 54.828125 56.59375 36.375 
Q 56.59375 19.140625 48.40625 8.859375 
Q 40.234375 -1.421875 26.421875 -1.421875 
Q 22.703125 -1.421875 18.890625 -0.6875 
Q 15.09375 0.046875 10.984375 1.515625 
z
M 30.609375 32.421875 
Q 37.25 32.421875 41.125 36.953125 
Q 45.015625 41.5 45.015625 49.421875 
Q 45.015625 57.28125 41.125 61.84375 
Q 37.25 66.40625 30.609375 66.40625 
Q 23.96875 66.40625 20.09375 61.84375 
Q 16.21875 57.28125 16.21875 49.421875 
Q 16.21875 41.5 20.09375 36.953125 
Q 23.96875 32.421875 30.609375 32.421875 
z
" id="DejaVuSans-57"/>
      <path d="M 10.6875 12.40625 
L 21 12.40625 
L 21 0 
L 10.6875 0 
z
" id="DejaVuSans-46"/>
     </defs>
     <g transform="translate(628.6825 528.757187)scale(0.1 -0.1)">
      <use xlink:href="#DejaVuSans-80"/>
      <use x="60.302734" xlink:href="#DejaVuSans-83"/>
      <use x="123.779297" xlink:href="#DejaVuSans-82"/>
      <use x="193.261719" xlink:href="#DejaVuSans-76"/>
      <use x="248.974609" xlink:href="#DejaVuSans-32"/>
      <use x="280.761719" xlink:href="#DejaVuSans-87"/>
      <use x="379.638672" xlink:href="#DejaVuSans-73"/>
      <use x="409.130859" xlink:href="#DejaVuSans-84"/>
      <use x="470.214844" xlink:href="#DejaVuSans-72"/>
      <use x="545.410156" xlink:href="#DejaVuSans-32"/>
      <use x="577.197266" xlink:href="#DejaVuSans-111"/>
      <use x="638.378906" xlink:href="#DejaVuSans-114"/>
      <use x="679.492188" xlink:href="#DejaVuSans-97"/>
      <use x="740.771484" xlink:href="#DejaVuSans-99"/>
      <use x="795.751953" xlink:href="#DejaVuSans-108"/>
      <use x="823.535156" xlink:href="#DejaVuSans-101"/>
      <use x="885.058594" xlink:href="#DejaVuSans-32"/>
      <use x="916.845703" xlink:href="#DejaVuSans-69"/>
      <use x="980.029297" xlink:href="#DejaVuSans-112"/>
      <use x="1043.505859" xlink:href="#DejaVuSans-105"/>
      <use x="1071.289062" xlink:href="#DejaVuSans-115"/>
      <use x="1123.388672" xlink:href="#DejaVuSans-111"/>
      <use x="1184.570312" xlink:href="#DejaVuSans-100"/>
      <use x="1248.046875" xlink:href="#DejaVuSans-101"/>
      <use x="1309.570312" xlink:href="#DejaVuSans-32"/>
      <use x="1341.357422" xlink:href="#DejaVuSans-49"/>
      <use x="1404.980469" xlink:href="#DejaVuSans-52"/>
      <use x="1468.603516" xlink:href="#DejaVuSans-58"/>
      <use x="1502.294922" xlink:href="#DejaVuSans-32"/>
      <use x="1534.082031" xlink:href="#DejaVuSans-49"/>
      <use x="1597.705078" xlink:href="#DejaVuSans-57"/>
      <use x="1661.328125" xlink:href="#DejaVuSans-55"/>
      <use x="1724.951172" xlink:href="#DejaVuSans-46"/>
      <use x="1756.738281" xlink:href="#DejaVuSans-52"/>
     </g>
    </g>
    <g id="line2d_77">
     <path d="M 600.6825 539.935313 
L 620.6825 539.935313 
" style="fill:none;stroke:#008000;stroke-dasharray:7.4,3.2;stroke-dashoffset:0;stroke-opacity:0.7;stroke-width:2;"/>
    </g>
    <g id="line2d_78"/>
    <g id="text_42">
     <!-- PSRL WITHOUT oracle Episode 14: 158.0 -->
     <defs>
      <path d="M 39.40625 66.21875 
Q 28.65625 66.21875 22.328125 58.203125 
Q 16.015625 50.203125 16.015625 36.375 
Q 16.015625 22.609375 22.328125 14.59375 
Q 28.65625 6.59375 39.40625 6.59375 
Q 50.140625 6.59375 56.421875 14.59375 
Q 62.703125 22.609375 62.703125 36.375 
Q 62.703125 50.203125 56.421875 58.203125 
Q 50.140625 66.21875 39.40625 66.21875 
z
M 39.40625 74.21875 
Q 54.734375 74.21875 63.90625 63.9375 
Q 73.09375 53.65625 73.09375 36.375 
Q 73.09375 19.140625 63.90625 8.859375 
Q 54.734375 -1.421875 39.40625 -1.421875 
Q 24.03125 -1.421875 14.8125 8.828125 
Q 5.609375 19.09375 5.609375 36.375 
Q 5.609375 53.65625 14.8125 63.9375 
Q 24.03125 74.21875 39.40625 74.21875 
z
" id="DejaVuSans-79"/>
      <path d="M 8.6875 72.90625 
L 18.609375 72.90625 
L 18.609375 28.609375 
Q 18.609375 16.890625 22.84375 11.734375 
Q 27.09375 6.59375 36.625 6.59375 
Q 46.09375 6.59375 50.34375 11.734375 
Q 54.59375 16.890625 54.59375 28.609375 
L 54.59375 72.90625 
L 64.5 72.90625 
L 64.5 27.390625 
Q 64.5 13.140625 57.4375 5.859375 
Q 50.390625 -1.421875 36.625 -1.421875 
Q 22.796875 -1.421875 15.734375 5.859375 
Q 8.6875 13.140625 8.6875 27.390625 
z
" id="DejaVuSans-85"/>
     </defs>
     <g transform="translate(628.6825 543.435313)scale(0.1 -0.1)">
      <use xlink:href="#DejaVuSans-80"/>
      <use x="60.302734" xlink:href="#DejaVuSans-83"/>
      <use x="123.779297" xlink:href="#DejaVuSans-82"/>
      <use x="193.261719" xlink:href="#DejaVuSans-76"/>
      <use x="248.974609" xlink:href="#DejaVuSans-32"/>
      <use x="280.761719" xlink:href="#DejaVuSans-87"/>
      <use x="379.638672" xlink:href="#DejaVuSans-73"/>
      <use x="409.130859" xlink:href="#DejaVuSans-84"/>
      <use x="470.214844" xlink:href="#DejaVuSans-72"/>
      <use x="545.410156" xlink:href="#DejaVuSans-79"/>
      <use x="624.121094" xlink:href="#DejaVuSans-85"/>
      <use x="697.314453" xlink:href="#DejaVuSans-84"/>
      <use x="758.398438" xlink:href="#DejaVuSans-32"/>
      <use x="790.185547" xlink:href="#DejaVuSans-111"/>
      <use x="851.367188" xlink:href="#DejaVuSans-114"/>
      <use x="892.480469" xlink:href="#DejaVuSans-97"/>
      <use x="953.759766" xlink:href="#DejaVuSans-99"/>
      <use x="1008.740234" xlink:href="#DejaVuSans-108"/>
      <use x="1036.523438" xlink:href="#DejaVuSans-101"/>
      <use x="1098.046875" xlink:href="#DejaVuSans-32"/>
      <use x="1129.833984" xlink:href="#DejaVuSans-69"/>
      <use x="1193.017578" xlink:href="#DejaVuSans-112"/>
      <use x="1256.494141" xlink:href="#DejaVuSans-105"/>
      <use x="1284.277344" xlink:href="#DejaVuSans-115"/>
      <use x="1336.376953" xlink:href="#DejaVuSans-111"/>
      <use x="1397.558594" xlink:href="#DejaVuSans-100"/>
      <use x="1461.035156" xlink:href="#DejaVuSans-101"/>
      <use x="1522.558594" xlink:href="#DejaVuSans-32"/>
      <use x="1554.345703" xlink:href="#DejaVuSans-49"/>
      <use x="1617.96875" xlink:href="#DejaVuSans-52"/>
      <use x="1681.591797" xlink:href="#DejaVuSans-58"/>
      <use x="1715.283203" xlink:href="#DejaVuSans-32"/>
      <use x="1747.070312" xlink:href="#DejaVuSans-49"/>
      <use x="1810.693359" xlink:href="#DejaVuSans-53"/>
      <use x="1874.316406" xlink:href="#DejaVuSans-56"/>
      <use x="1937.939453" xlink:href="#DejaVuSans-46"/>
      <use x="1969.726562" xlink:href="#DejaVuSans-48"/>
     </g>
    </g>
   </g>
  </g>
 </g>
 <defs>
  <clipPath id="p3f1d459336">
   <rect height="295.12" width="792.025" x="48.995" y="23.837812"/>
  </clipPath>
  <clipPath id="p78dd5e7d9e">
   <rect height="295.12" width="792.025" x="48.995" y="378.437812"/>
  </clipPath>
 </defs>
</svg>
